{
  "accessors": [
    {
      "bufferView": 2,
      "componentType": 5126,
      "count": 512,
      "max": [
        2.425729990005493,
        2.460177183151245,
        5.569167137145996
      ],
      "min": [
        -3.2398879528045654,
        -3.0887134075164795,
        -3.9481983184814453
      ],
      "type": "VEC3"
    },
    {
      "bufferView": 2,
      "byteOffset": 6144,
      "componentType": 5126,
      "count": 512,
      "max": [
        0.9063863754272461,
        0.9090103507041931,
        0.49720674753189087
      ],
      "min": [
        -0.9062382578849792,
        -0.8975167870521545,
        -0.9995659589767456
      ],
      "type": "VEC3"
    },
    {
      "bufferView": 1,
      "componentType": 5126,
      "count": 512,
      "max": [
        0.9900000095367432,
        0.49000000953674316
      ],
      "min": [
        0.01000000536441803,
        0.01000000536441803
      ],
      "type": "VEC2"
    },
    {
      "bufferView": 0,
      "componentType": 5125,
      "count": 744,
      "type": "SCALAR"
    },
    {
      "bufferView": 2,
      "byteOffset": 12288,
      "componentType": 5126,
      "count": 192,
      "max": [
        0.6883805394172668,
        0.6829843521118164,
        4.133009433746338
      ],
      "min": [
        -0.6390376687049866,
        -0.644433856010437,
        -5.43161678314209
      ],
      "type": "VEC3"
    },
    {
      "bufferView": 2,
      "byteOffset": 14592,
      "componentType": 5126,
      "count": 192,
      "max": [
        0.9942852854728699,
        0.9942853450775146,
        1.0
      ],
      "min": [
        -0.9942852258682251,
        -0.9942853450775146,
        -1.0
      ],
      "type": "VEC3"
    },
    {
      "bufferView": 1,
      "byteOffset": 4096,
      "componentType": 5126,
      "count": 192,
      "max": [
        1.0,
        1.0
      ],
      "min": [
        0.0,
        0.01000000536441803
      ],
      "type": "VEC2"
    },
    {
      "bufferView": 0,
      "byteOffset": 2976,
      "componentType": 5125,
      "count": 372,
      "type": "SCALAR"
    },
    {
      "bufferView": 2,
      "byteOffset": 16896,
      "componentType": 5126,
      "count": 384,
      "max": [
        2.037372589111328,
        2.03737211227417,
        4.323683738708496
      ],
      "min": [
        -2.037372589111328,
        -2.0373730659484863,
        -1.3283536434173584
      ],
      "type": "VEC3"
    },
    {
      "bufferView": 2,
      "byteOffset": 21504,
      "componentType": 5126,
      "count": 384,
      "max": [
        0.8909767866134644,
        0.8909767866134644,
        0.44548845291137695
      ],
      "min": [
        -0.8909767866134644,
        -0.8909767866134644,
        -1.0
      ],
      "type": "VEC3"
    },
    {
      "bufferView": 1,
      "byteOffset": 5632,
      "componentType": 5126,
      "count": 384,
      "max": [
        0.9900000095367432,
        0.49000000953674316
      ],
      "min": [
        0.01000000536441803,
        0.01000000536441803
      ],
      "type": "VEC2"
    },
    {
      "bufferView": 0,
      "byteOffset": 4464,
      "componentType": 5125,
      "count": 558,
      "type": "SCALAR"
    },
    {
      "bufferView": 2,
      "byteOffset": 26112,
      "componentType": 5126,
      "count": 192,
      "max": [
        0.7099307775497437,
        0.7099303603172302,
        3.070695161819458
      ],
      "min": [
        -0.7099307775497437,
        -0.7099311947822571,
        -5.072861671447754
      ],
      "type": "VEC3"
    },
    {
      "bufferView": 2,
      "byteOffset": 28416,
      "componentType": 5126,
      "count": 192,
      "max": [
        0.9931975603103638,
        0.9931975603103638,
        1.0
      ],
      "min": [
        -0.9931975603103638,
        -0.9931975603103638,
        -1.0
      ],
      "type": "VEC3"
    },
    {
      "bufferView": 1,
      "byteOffset": 8704,
      "componentType": 5126,
      "count": 192,
      "max": [
        1.0,
        1.0
      ],
      "min": [
        0.0,
        0.01000000536441803
      ],
      "type": "VEC2"
    },
    {
      "bufferView": 0,
      "byteOffset": 6696,
      "componentType": 5125,
      "count": 372,
      "type": "SCALAR"
    },
    {
      "bufferView": 2,
      "byteOffset": 30720,
      "componentType": 5126,
      "count": 5819,
      "max": [
        9.447519302368164,
        1.1977345943450928,
        19.13117218017578
      ],
      "min": [
        -12.97124195098877,
        -0.8272928595542908,
        -18.61686897277832
      ],
      "type": "VEC3"
    },
    {
      "bufferView": 2,
      "byteOffset": 100548,
      "componentType": 5126,
      "count": 5819,
      "max": [
        1.0,
        1.0,
        1.0
      ],
      "min": [
        -1.0,
        -1.0,
        -1.0
      ],
      "type": "VEC3"
    },
    {
      "bufferView": 1,
      "byteOffset": 10240,
      "componentType": 5126,
      "count": 5819,
      "max": [
        0.8750001192092896,
        1.0194625854492188
      ],
      "min": [
        0.1249999925494194,
        -0.009184611029922962
      ],
      "type": "VEC2"
    },
    {
      "bufferView": 0,
      "byteOffset": 8184,
      "componentType": 5125,
      "count": 8895,
      "type": "SCALAR"
    },
    {
      "bufferView": 2,
      "byteOffset": 170376,
      "componentType": 5126,
      "count": 72,
      "max": [
        6.242926597595215,
        1.0555139780044556,
        14.176865577697754
      ],
      "min": [
        -8.807269096374512,
        -0.6550523042678833,
        -18.5139102935791
      ],
      "type": "VEC3"
    },
    {
      "bufferView": 2,
      "byteOffset": 171240,
      "componentType": 5126,
      "count": 72,
      "max": [
        1.0,
        1.0,
        1.0
      ],
      "min": [
        -1.0,
        -1.0,
        -1.0
      ],
      "type": "VEC3"
    },
    {
      "bufferView": 1,
      "byteOffset": 56792,
      "componentType": 5126,
      "count": 72,
      "max": [
        0.875,
        1.0
      ],
      "min": [
        0.125,
        0.0
      ],
      "type": "VEC2"
    },
    {
      "bufferView": 0,
      "byteOffset": 43764,
      "componentType": 5125,
      "count": 108,
      "type": "SCALAR"
    },
    {
      "bufferView": 2,
      "byteOffset": 172104,
      "componentType": 5126,
      "count": 954,
      "max": [
        7.555054664611816,
        1.196764349937439,
        -8.583145141601563
      ],
      "min": [
        -10.01674747467041,
        -0.8598447442054749,
        -18.52510643005371
      ],
      "type": "VEC3"
    },
    {
      "bufferView": 2,
      "byteOffset": 183552,
      "componentType": 5126,
      "count": 954,
      "max": [
        1.0,
        1.0,
        1.0
      ],
      "min": [
        -1.0,
        -1.0,
        -1.0
      ],
      "type": "VEC3"
    },
    {
      "bufferView": 1,
      "byteOffset": 57368,
      "componentType": 5126,
      "count": 954,
      "max": [
        0.8750001192092896,
        1.0
      ],
      "min": [
        0.125,
        0.0
      ],
      "type": "VEC2"
    },
    {
      "bufferView": 0,
      "byteOffset": 44196,
      "componentType": 5125,
      "count": 1464,
      "type": "SCALAR"
    },
    {
      "bufferView": 2,
      "byteOffset": 195000,
      "componentType": 5126,
      "count": 72,
      "max": [
        -0.5643168091773987,
        -0.6491200923919678,
        -2.8114795684814453
      ],
      "min": [
        -5.754233360290527,
        -0.7364951968193054,
        -18.507474899291992
      ],
      "type": "VEC3"
    },
    {
      "bufferView": 2,
      "byteOffset": 195864,
      "componentType": 5126,
      "count": 72,
      "max": [
        1.0,
        1.0,
        1.0
      ],
      "min": [
        -1.0,
        -0.9997254014015198,
        -1.0
      ],
      "type": "VEC3"
    },
    {
      "bufferView": 1,
      "byteOffset": 65000,
      "componentType": 5126,
      "count": 72,
      "max": [
        0.875,
        1.0
      ],
      "min": [
        0.125,
        0.0
      ],
      "type": "VEC2"
    },
    {
      "bufferView": 0,
      "byteOffset": 50052,
      "componentType": 5125,
      "count": 108,
      "type": "SCALAR"
    },
    {
      "bufferView": 2,
      "byteOffset": 196728,
      "componentType": 5126,
      "count": 364,
      "max": [
        6.484688758850098,
        0.7585222125053406,
        -3.8938465118408203
      ],
      "min": [
        1.2130264043807983,
        -0.6830353736877441,
        -10.977209091186523
      ],
      "type": "VEC3"
    },
    {
      "bufferView": 2,
      "byteOffset": 201096,
      "componentType": 5126,
      "count": 364,
      "max": [
        1.0,
        1.0,
        1.0
      ],
      "min": [
        -1.0,
        -1.0,
        -1.0
      ],
      "type": "VEC3"
    },
    {
      "bufferView": 1,
      "byteOffset": 65576,
      "componentType": 5126,
      "count": 364,
      "max": [
        0.875,
        1.0
      ],
      "min": [
        0.125,
        0.0
      ],
      "type": "VEC2"
    },
    {
      "bufferView": 0,
      "byteOffset": 50484,
      "componentType": 5125,
      "count": 768,
      "type": "SCALAR"
    },
    {
      "bufferView": 2,
      "byteOffset": 205464,
      "componentType": 5126,
      "count": 8,
      "max": [
        6.300489902496338,
        0.7446932196617126,
        -4.220796585083008
      ],
      "min": [
        1.3290072679519653,
        -0.672198474407196,
        -10.879201889038086
      ],
      "type": "VEC3"
    },
    {
      "bufferView": 2,
      "byteOffset": 205560,
      "componentType": 5126,
      "count": 8,
      "max": [
        1.0,
        1.0,
        7.681429536887663e-08
      ],
      "min": [
        0.0,
        0.0,
        0.0
      ],
      "type": "VEC3"
    },
    {
      "bufferView": 1,
      "byteOffset": 68488,
      "componentType": 5126,
      "count": 8,
      "max": [
        1.0,
        1.0
      ],
      "min": [
        0.0,
        0.0
      ],
      "type": "VEC2"
    },
    {
      "bufferView": 0,
      "byteOffset": 53556,
      "componentType": 5125,
      "count": 12,
      "type": "SCALAR"
    },
    {
      "bufferView": 2,
      "byteOffset": 205656,
      "componentType": 5126,
      "count": 960,
      "max": [
        8.862393379211426,
        0.9558582901954651,
        15.122044563293457
      ],
      "min": [
        -11.86196231842041,
        -0.6259843707084656,
        0.21290206909179688
      ],
      "type": "VEC3"
    },
    {
      "bufferView": 2,
      "byteOffset": 217176,
      "componentType": 5126,
      "count": 960,
      "max": [
        0.872198224067688,
        1.0,
        0.60981684923172
      ],
      "min": [
        -0.8721980452537537,
        -1.0,
        -0.704158365726471
      ],
      "type": "VEC3"
    },
    {
      "bufferView": 1,
      "byteOffset": 68552,
      "componentType": 5126,
      "count": 960,
      "max": [
        0.875,
        1.0
      ],
      "min": [
        0.125,
        0.0
      ],
      "type": "VEC2"
    },
    {
      "bufferView": 0,
      "byteOffset": 53604,
      "componentType": 5125,
      "count": 1440,
      "type": "SCALAR"
    },
    {
      "bufferView": 2,
      "byteOffset": 228696,
      "componentType": 5126,
      "count": 261,
      "max": [
        4.461781024932861,
        0.5606995820999146,
        15.985750198364258
      ],
      "min": [
        2.166104316711426,
        0.30756789445877075,
        6.6872711181640625
      ],
      "type": "VEC3"
    },
    {
      "bufferView": 2,
      "byteOffset": 231828,
      "componentType": 5126,
      "count": 261,
      "max": [
        1.0,
        1.0,
        1.0
      ],
      "min": [
        -0.9976507425308228,
        -1.0,
        -1.0
      ],
      "type": "VEC3"
    },
    {
      "bufferView": 1,
      "byteOffset": 76232,
      "componentType": 5126,
      "count": 261,
      "max": [
        0.875,
        1.0
      ],
      "min": [
        0.125,
        0.0
      ],
      "type": "VEC2"
    },
    {
      "bufferView": 0,
      "byteOffset": 59364,
      "componentType": 5125,
      "count": 432,
      "type": "SCALAR"
    },
    {
      "bufferView": 2,
      "byteOffset": 234960,
      "componentType": 5126,
      "count": 2112,
      "max": [
        9.353472709655762,
        3.95119571685791,
        5.0169172286987305
      ],
      "min": [
        -11.199967384338379,
        -3.8705577850341797,
        -5.375890731811523
      ],
      "type": "VEC3"
    },
    {
      "bufferView": 2,
      "byteOffset": 260304,
      "componentType": 5126,
      "count": 2112,
      "max": [
        1.0,
        0.997278094291687,
        0.9997081160545349
      ],
      "min": [
        -1.0,
        -0.9996566772460938,
        -1.0
      ],
      "type": "VEC3"
    },
    {
      "bufferView": 1,
      "byteOffset": 78320,
      "componentType": 5126,
      "count": 2112,
      "max": [
        0.875,
        1.0
      ],
      "min": [
        0.125,
        0.0
      ],
      "type": "VEC2"
    },
    {
      "bufferView": 0,
      "byteOffset": 61092,
      "componentType": 5125,
      "count": 3168,
      "type": "SCALAR"
    },
    {
      "bufferView": 2,
      "byteOffset": 285648,
      "componentType": 5126,
      "count": 72,
      "max": [
        9.595251083374023,
        7.641470432281494,
        4.6236958503723145
      ],
      "min": [
        -11.276110649108887,
        -3.5544228553771973,
        -11.205825805664063
      ],
      "type": "VEC3"
    },
    {
      "bufferView": 2,
      "byteOffset": 286512,
      "componentType": 5126,
      "count": 72,
      "max": [
        1.0,
        0.8302698731422424,
        0.9886476993560791
      ],
      "min": [
        -1.0,
        -0.9999546408653259,
        -0.6336964964866638
      ],
      "type": "VEC3"
    },
    {
      "bufferView": 1,
      "byteOffset": 95216,
      "componentType": 5126,
      "count": 72,
      "max": [
        0.875,
        1.0
      ],
      "min": [
        0.125,
        0.0
      ],
      "type": "VEC2"
    },
    {
      "bufferView": 0,
      "byteOffset": 73764,
      "componentType": 5125,
      "count": 108,
      "type": "SCALAR"
    },
    {
      "bufferView": 2,
      "byteOffset": 287376,
      "componentType": 5126,
      "count": 7815,
      "max": [
        10.86205768585205,
        8.063611030578613,
        6.665030002593994
      ],
      "min": [
        -12.336668968200684,
        -7.1795549392700195,
        -11.761237144470215
      ],
      "type": "VEC3"
    },
    {
      "bufferView": 2,
      "byteOffset": 381156,
      "componentType": 5126,
      "count": 7815,
      "max": [
        1.0,
        0.999964714050293,
        1.0
      ],
      "min": [
        -1.0,
        -1.0,
        -1.0
      ],
      "type": "VEC3"
    },
    {
      "bufferView": 1,
      "byteOffset": 95792,
      "componentType": 5126,
      "count": 7815,
      "max": [
        0.8750001192092896,
        1.0194625854492188
      ],
      "min": [
        0.1249999925494194,
        -0.009184611029922962
      ],
      "type": "VEC2"
    },
    {
      "bufferView": 0,
      "byteOffset": 74196,
      "componentType": 5125,
      "count": 11727,
      "type": "SCALAR"
    },
    {
      "bufferView": 2,
      "byteOffset": 474936,
      "componentType": 5126,
      "count": 72,
      "max": [
        5.915220260620117,
        7.796645641326904,
        1.8748695850372314
      ],
      "min": [
        2.2421913146972656,
        3.632999897003174,
        -4.246668815612793
      ],
      "type": "VEC3"
    },
    {
      "bufferView": 2,
      "byteOffset": 475800,
      "componentType": 5126,
      "count": 72,
      "max": [
        1.0,
        0.8182394504547119,
        0.6336972117424011
      ],
      "min": [
        -1.0,
        -0.8302698731422424,
        -0.6336987018585205
      ],
      "type": "VEC3"
    },
    {
      "bufferView": 1,
      "byteOffset": 158312,
      "componentType": 5126,
      "count": 72,
      "max": [
        0.875,
        1.0
      ],
      "min": [
        0.125,
        0.0
      ],
      "type": "VEC2"
    },
    {
      "bufferView": 0,
      "byteOffset": 121104,
      "componentType": 5125,
      "count": 108,
      "type": "SCALAR"
    },
    {
      "bufferView": 2,
      "byteOffset": 476664,
      "componentType": 5126,
      "count": 972,
      "max": [
        10.23574447631836,
        8.122879981994629,
        -0.2851862907409668
      ],
      "min": [
        -11.860827445983887,
        0.516424298286438,
        -11.726277351379395
      ],
      "type": "VEC3"
    },
    {
      "bufferView": 2,
      "byteOffset": 488328,
      "componentType": 5126,
      "count": 972,
      "max": [
        1.0,
        0.989819347858429,
        0.9923175573348999
      ],
      "min": [
        -1.0,
        -0.9898228645324707,
        -0.9923165440559387
      ],
      "type": "VEC3"
    },
    {
      "bufferView": 1,
      "byteOffset": 158888,
      "componentType": 5126,
      "count": 972,
      "max": [
        0.8750001192092896,
        1.0
      ],
      "min": [
        0.125,
        0.0
      ],
      "type": "VEC2"
    },
    {
      "bufferView": 0,
      "byteOffset": 121536,
      "componentType": 5125,
      "count": 1464,
      "type": "SCALAR"
    },
    {
      "bufferView": 2,
      "byteOffset": 499992,
      "componentType": 5126,
      "count": 12,
      "max": [
        9.551936149597168,
        5.678050518035889,
        1.1992645263671875
      ],
      "min": [
        -4.19135046005249,
        -1.7804282903671265,
        -8.31646728515625
      ],
      "type": "VEC3"
    },
    {
      "bufferView": 2,
      "byteOffset": 500136,
      "componentType": 5126,
      "count": 12,
      "max": [
        1.401558051838947e-07,
        0.8302698135375977,
        0.5573619604110718
      ],
      "min": [
        -1.0,
        -3.9861544109953684e-07,
        0.0
      ],
      "type": "VEC3"
    },
    {
      "bufferView": 1,
      "byteOffset": 166664,
      "componentType": 5126,
      "count": 12,
      "max": [
        1.0,
        1.0
      ],
      "min": [
        0.0,
        0.0
      ],
      "type": "VEC2"
    },
    {
      "bufferView": 0,
      "byteOffset": 127392,
      "componentType": 5125,
      "count": 18,
      "type": "SCALAR"
    },
    {
      "bufferView": 2,
      "byteOffset": 500280,
      "componentType": 5126,
      "count": 822,
      "max": [
        9.619729995727539,
        5.769150257110596,
        1.400601863861084
      ],
      "min": [
        -4.316336631774902,
        -1.9276310205459595,
        -8.43423080444336
      ],
      "type": "VEC3"
    },
    {
      "bufferView": 2,
      "byteOffset": 510144,
      "componentType": 5126,
      "count": 822,
      "max": [
        1.0,
        0.833808422088623,
        0.6381875872612
      ],
      "min": [
        -1.0,
        -0.8337851166725159,
        -0.6336995959281921
      ],
      "type": "VEC3"
    },
    {
      "bufferView": 1,
      "byteOffset": 166760,
      "componentType": 5126,
      "count": 822,
      "max": [
        0.875,
        1.0
      ],
      "min": [
        0.125,
        0.0
      ],
      "type": "VEC2"
    },
    {
      "bufferView": 0,
      "byteOffset": 127464,
      "componentType": 5125,
      "count": 1236,
      "type": "SCALAR"
    },
    {
      "bufferView": 2,
      "byteOffset": 520008,
      "componentType": 5126,
      "count": 380,
      "max": [
        -4.661904335021973,
        -2.7961082458496094,
        4.534002304077148
      ],
      "min": [
        -6.245478630065918,
        -6.687382698059082,
        -1.0353145599365234
      ],
      "type": "VEC3"
    },
    {
      "bufferView": 2,
      "byteOffset": 524568,
      "componentType": 5126,
      "count": 380,
      "max": [
        0.9999997615814209,
        0.8480902910232544,
        0.6507616639137268
      ],
      "min": [
        -1.0,
        -0.870749294757843,
        -0.6336967945098877
      ],
      "type": "VEC3"
    },
    {
      "bufferView": 1,
      "byteOffset": 173336,
      "componentType": 5126,
      "count": 380,
      "max": [
        0.875,
        1.0
      ],
      "min": [
        0.125,
        0.0
      ],
      "type": "VEC2"
    },
    {
      "bufferView": 0,
      "byteOffset": 132408,
      "componentType": 5125,
      "count": 576,
      "type": "SCALAR"
    },
    {
      "bufferView": 2,
      "byteOffset": 529128,
      "componentType": 5126,
      "count": 384,
      "max": [
        0.9215999841690063,
        1.101062536239624,
        3.5080153942108154
      ],
      "min": [
        -0.9231237173080444,
        -0.8234111070632935,
        2.0354762077331543
      ],
      "type": "VEC3"
    },
    {
      "bufferView": 2,
      "byteOffset": 533736,
      "componentType": 5126,
      "count": 384,
      "max": [
        0.9915424585342407,
        0.9916614294052124,
        0.9994295239448547
      ],
      "min": [
        -0.9882192015647888,
        -0.9949914216995239,
        -0.999549150466919
      ],
      "type": "VEC3"
    },
    {
      "bufferView": 1,
      "byteOffset": 176376,
      "componentType": 5126,
      "count": 384,
      "max": [
        0.8750001192092896,
        1.0000001192092896
      ],
      "min": [
        0.1250000149011612,
        0.0
      ],
      "type": "VEC2"
    },
    {
      "bufferView": 0,
      "byteOffset": 134712,
      "componentType": 5125,
      "count": 576,
      "type": "SCALAR"
    },
    {
      "bufferView": 2,
      "byteOffset": 538344,
      "componentType": 5126,
      "count": 14000,
      "max": [
        1.8527990579605103,
        1.9034874439239502,
        2.67726993560791
      ],
      "min": [
        -1.890148639678955,
        -1.9527119398117065,
        -2.8708205223083496
      ],
      "type": "VEC3"
    },
    {
      "bufferView": 2,
      "byteOffset": 706344,
      "componentType": 5126,
      "count": 14000,
      "max": [
        1.0,
        1.0,
        1.0
      ],
      "min": [
        -1.0,
        -1.0,
        -1.0
      ],
      "type": "VEC3"
    },
    {
      "bufferView": 1,
      "byteOffset": 179448,
      "componentType": 5126,
      "count": 14000,
      "max": [
        0.875,
        1.0
      ],
      "min": [
        0.0,
        0.0
      ],
      "type": "VEC2"
    },
    {
      "bufferView": 0,
      "byteOffset": 137016,
      "componentType": 5125,
      "count": 21288,
      "type": "SCALAR"
    },
    {
      "bufferView": 2,
      "byteOffset": 874344,
      "componentType": 5126,
      "count": 4608,
      "max": [
        1.9846605062484741,
        1.995645523071289,
        1.8228141069412231
      ],
      "min": [
        -1.9087833166122437,
        -1.9738024473190308,
        -1.704317569732666
      ],
      "type": "VEC3"
    },
    {
      "bufferView": 2,
      "byteOffset": 929640,
      "componentType": 5126,
      "count": 4608,
      "max": [
        0.9639961123466492,
        0.9639967679977417,
        0.9657899737358093
      ],
      "min": [
        -0.963996410369873,
        -0.9639968872070313,
        -0.9657901525497437
      ],
      "type": "VEC3"
    },
    {
      "bufferView": 1,
      "byteOffset": 291448,
      "componentType": 5126,
      "count": 4608,
      "max": [
        1.0,
        1.0
      ],
      "min": [
        8.881784197001252e-16,
        2.220446049250313e-16
      ],
      "type": "VEC2"
    },
    {
      "bufferView": 0,
      "byteOffset": 222168,
      "componentType": 5125,
      "count": 6912,
      "type": "SCALAR"
    },
    {
      "bufferView": 2,
      "byteOffset": 984936,
      "componentType": 5126,
      "count": 384,
      "max": [
        0.7456890344619751,
        0.8390443325042725,
        0.8249451518058777
      ],
      "min": [
        -0.8227542042732239,
        -0.8322190046310425,
        -0.5647447109222412
      ],
      "type": "VEC3"
    },
    {
      "bufferView": 2,
      "byteOffset": 989544,
      "componentType": 5126,
      "count": 384,
      "max": [
        0.9987741112709045,
        0.9712187647819519,
        0.9688146114349365
      ],
      "min": [
        -0.9829539656639099,
        -0.9664456844329834,
        -0.9994083046913147
      ],
      "type": "VEC3"
    },
    {
      "bufferView": 1,
      "byteOffset": 328312,
      "componentType": 5126,
      "count": 384,
      "max": [
        0.8750001192092896,
        1.0000001192092896
      ],
      "min": [
        0.1250000149011612,
        0.0
      ],
      "type": "VEC2"
    },
    {
      "bufferView": 0,
      "byteOffset": 249816,
      "componentType": 5125,
      "count": 576,
      "type": "SCALAR"
    },
    {
      "bufferView": 2,
      "byteOffset": 994152,
      "componentType": 5126,
      "count": 102,
      "max": [
        1.0921621322631836,
        1.0921621322631836,
        1.0
      ],
      "min": [
        -1.0921621322631836,
        -1.0921621322631836,
        -1.0
      ],
      "type": "VEC3"
    },
    {
      "bufferView": 2,
      "byteOffset": 995376,
      "componentType": 5126,
      "count": 102,
      "max": [
        0.9900592565536499,
        0.9900591969490051,
        1.0
      ],
      "min": [
        -0.9900592565536499,
        -0.9900593161582947,
        -1.0
      ],
      "type": "VEC3"
    },
    {
      "bufferView": 1,
      "byteOffset": 331384,
      "componentType": 5126,
      "count": 102,
      "max": [
        0.875,
        1.0
      ],
      "min": [
        0.125,
        0.0
      ],
      "type": "VEC2"
    },
    {
      "bufferView": 0,
      "byteOffset": 252120,
      "componentType": 5125,
      "count": 168,
      "type": "SCALAR"
    },
    {
      "bufferView": 2,
      "byteOffset": 996600,
      "componentType": 5126,
      "count": 624,
      "max": [
        5.37575626373291,
        1.2329168319702148,
        4.926846027374268
      ],
      "min": [
        -2.2057082653045654,
        -4.397931098937988,
        -2.640092372894287
      ],
      "type": "VEC3"
    },
    {
      "bufferView": 2,
      "byteOffset": 1004088,
      "componentType": 5126,
      "count": 624,
      "max": [
        1.0,
        0.9998002648353577,
        0.9988878965377808
      ],
      "min": [
        -1.0,
        -0.9999794960021973,
        -1.0
      ],
      "type": "VEC3"
    },
    {
      "bufferView": 1,
      "byteOffset": 332200,
      "componentType": 5126,
      "count": 624,
      "max": [
        0.875,
        1.0
      ],
      "min": [
        0.125,
        0.0
      ],
      "type": "VEC2"
    },
    {
      "bufferView": 0,
      "byteOffset": 252792,
      "componentType": 5125,
      "count": 936,
      "type": "SCALAR"
    },
    {
      "bufferView": 2,
      "byteOffset": 1011576,
      "componentType": 5126,
      "count": 152,
      "max": [
        4.976916313171387,
        5.49816370010376,
        3.6557703018188477
      ],
      "min": [
        -1.6588022708892822,
        -3.5623979568481445,
        -8.562466621398926
      ],
      "type": "VEC3"
    },
    {
      "bufferView": 2,
      "byteOffset": 1013400,
      "componentType": 5126,
      "count": 152,
      "max": [
        1.0,
        0.8108276128768921,
        0.6060020327568054
      ],
      "min": [
        -1.0,
        -0.8108276128768921,
        -0.6060020923614502
      ],
      "type": "VEC3"
    },
    {
      "bufferView": 1,
      "byteOffset": 337192,
      "componentType": 5126,
      "count": 152,
      "max": [
        0.875,
        1.0
      ],
      "min": [
        0.125,
        0.0
      ],
      "type": "VEC2"
    },
    {
      "bufferView": 0,
      "byteOffset": 256536,
      "componentType": 5125,
      "count": 228,
      "type": "SCALAR"
    },
    {
      "bufferView": 2,
      "byteOffset": 1015224,
      "componentType": 5126,
      "count": 960,
      "max": [
        5.304974555969238,
        5.703068256378174,
        3.6900734901428223
      ],
      "min": [
        -1.9731457233428955,
        -3.5840229988098145,
        -8.812870025634766
      ],
      "type": "VEC3"
    },
    {
      "bufferView": 2,
      "byteOffset": 1026744,
      "componentType": 5126,
      "count": 960,
      "max": [
        1.0,
        0.985197901725769,
        0.9442646503448486
      ],
      "min": [
        -1.0,
        -0.9852216839790344,
        -0.9423730969429016
      ],
      "type": "VEC3"
    },
    {
      "bufferView": 1,
      "byteOffset": 338408,
      "componentType": 5126,
      "count": 960,
      "max": [
        0.875,
        1.0
      ],
      "min": [
        0.125,
        0.0
      ],
      "type": "VEC2"
    },
    {
      "bufferView": 0,
      "byteOffset": 257448,
      "componentType": 5125,
      "count": 1440,
      "type": "SCALAR"
    },
    {
      "bufferView": 2,
      "byteOffset": 1038264,
      "componentType": 5126,
      "count": 198,
      "max": [
        -1.594865083694458,
        3.2220616340637207,
        0.726855993270874
      ],
      "min": [
        -1.7002441883087158,
        0.31671643257141113,
        -3.2079052925109863
      ],
      "type": "VEC3"
    },
    {
      "bufferView": 2,
      "byteOffset": 1040640,
      "componentType": 5126,
      "count": 198,
      "max": [
        1.0,
        0.8108291029930115,
        0.6101326942443848
      ],
      "min": [
        -1.0,
        -0.8108289241790771,
        -0.60600346326828
      ],
      "type": "VEC3"
    },
    {
      "bufferView": 1,
      "byteOffset": 346088,
      "componentType": 5126,
      "count": 198,
      "max": [
        0.875,
        1.0
      ],
      "min": [
        0.125,
        0.0
      ],
      "type": "VEC2"
    },
    {
      "bufferView": 0,
      "byteOffset": 263208,
      "componentType": 5125,
      "count": 300,
      "type": "SCALAR"
    },
    {
      "bufferView": 2,
      "byteOffset": 1043016,
      "componentType": 5126,
      "count": 8,
      "max": [
        -1.647552728652954,
        3.2449841499328613,
        0.8135647773742676
      ],
      "min": [
        -1.6803066730499268,
        0.2776072025299072,
        -3.2149930000305176
      ],
      "type": "VEC3"
    },
    {
      "bufferView": 2,
      "byteOffset": 1043112,
      "componentType": 5126,
      "count": 8,
      "max": [
        1.0,
        0.0,
        -5.983427797673357e-08
      ],
      "min": [
        1.0,
        -5.838275569658435e-07,
        -3.3396543130947975e-07
      ],
      "type": "VEC3"
    },
    {
      "bufferView": 1,
      "byteOffset": 347672,
      "componentType": 5126,
      "count": 8,
      "max": [
        1.0,
        1.0
      ],
      "min": [
        0.0,
        0.0
      ],
      "type": "VEC2"
    },
    {
      "bufferView": 0,
      "byteOffset": 264408,
      "componentType": 5125,
      "count": 12,
      "type": "SCALAR"
    },
    {
      "bufferView": 2,
      "byteOffset": 1043208,
      "componentType": 5126,
      "count": 1034,
      "max": [
        16.293611526489258,
        8.993927001953125,
        -16.1091365814209
      ],
      "min": [
        -2.9267849922180176,
        -8.708877563476563,
        -30.26951026916504
      ],
      "type": "VEC3"
    },
    {
      "bufferView": 2,
      "byteOffset": 1055616,
      "componentType": 5126,
      "count": 1034,
      "max": [
        1.0,
        1.0,
        1.0
      ],
      "min": [
        -1.0,
        -1.0,
        -1.0
      ],
      "type": "VEC3"
    },
    {
      "bufferView": 1,
      "byteOffset": 347736,
      "componentType": 5126,
      "count": 1034,
      "max": [
        0.8750001192092896,
        1.0
      ],
      "min": [
        0.125,
        0.0
      ],
      "type": "VEC2"
    },
    {
      "bufferView": 0,
      "byteOffset": 264456,
      "componentType": 5125,
      "count": 1656,
      "type": "SCALAR"
    },
    {
      "bufferView": 2,
      "byteOffset": 1068024,
      "componentType": 5126,
      "count": 240,
      "max": [
        16.265493392944336,
        9.041960716247559,
        25.766048431396484
      ],
      "min": [
        -2.285200595855713,
        -7.876641273498535,
        -30.258983612060547
      ],
      "type": "VEC3"
    },
    {
      "bufferView": 2,
      "byteOffset": 1070904,
      "componentType": 5126,
      "count": 240,
      "max": [
        1.0,
        1.0,
        1.0
      ],
      "min": [
        -1.0,
        -1.0,
        -1.0
      ],
      "type": "VEC3"
    },
    {
      "bufferView": 1,
      "byteOffset": 356008,
      "componentType": 5126,
      "count": 240,
      "max": [
        0.875,
        1.0
      ],
      "min": [
        0.125,
        0.0
      ],
      "type": "VEC2"
    },
    {
      "bufferView": 0,
      "byteOffset": 271080,
      "componentType": 5125,
      "count": 372,
      "type": "SCALAR"
    },
    {
      "bufferView": 2,
      "byteOffset": 1073784,
      "componentType": 5126,
      "count": 2206,
      "max": [
        16.32472801208496,
        21.734920501708984,
        47.60734939575195
      ],
      "min": [
        -10.24234676361084,
        -22.34069061279297,
        -30.355785369873047
      ],
      "type": "VEC3"
    },
    {
      "bufferView": 2,
      "byteOffset": 1100256,
      "componentType": 5126,
      "count": 2206,
      "max": [
        1.0,
        1.0,
        1.0
      ],
      "min": [
        -1.0,
        -1.0,
        -1.0
      ],
      "type": "VEC3"
    },
    {
      "bufferView": 1,
      "byteOffset": 357928,
      "componentType": 5126,
      "count": 2206,
      "max": [
        1.0,
        1.0194625854492188
      ],
      "min": [
        0.0,
        -0.009184611029922962
      ],
      "type": "VEC2"
    },
    {
      "bufferView": 0,
      "byteOffset": 272568,
      "componentType": 5125,
      "count": 3507,
      "type": "SCALAR"
    },
    {
      "bufferView": 2,
      "byteOffset": 1126728,
      "componentType": 5126,
      "count": 624,
      "max": [
        18.453094482421875,
        10.274272918701172,
        38.45430374145508
      ],
      "min": [
        -4.213524341583252,
        -9.348422050476074,
        22.598594665527344
      ],
      "type": "VEC3"
    },
    {
      "bufferView": 2,
      "byteOffset": 1134216,
      "componentType": 5126,
      "count": 624,
      "max": [
        1.0,
        0.8404406309127808,
        1.0
      ],
      "min": [
        -1.0,
        -0.840440571308136,
        -1.0
      ],
      "type": "VEC3"
    },
    {
      "bufferView": 1,
      "byteOffset": 375576,
      "componentType": 5126,
      "count": 624,
      "max": [
        0.875,
        1.0
      ],
      "min": [
        0.125,
        0.0
      ],
      "type": "VEC2"
    },
    {
      "bufferView": 0,
      "byteOffset": 286596,
      "componentType": 5125,
      "count": 936,
      "type": "SCALAR"
    },
    {
      "bufferView": 2,
      "byteOffset": 1141704,
      "componentType": 5126,
      "count": 16,
      "max": [
        -6.651790618896484,
        20.96668243408203,
        46.606075286865234
      ],
      "min": [
        -6.651794910430908,
        -21.572450637817383,
        -8.843439102172852
      ],
      "type": "VEC3"
    },
    {
      "bufferView": 2,
      "byteOffset": 1141896,
      "componentType": 5126,
      "count": 16,
      "max": [
        -1.0,
        2.8975472332604113e-07,
        1.2932467541304504e-07
      ],
      "min": [
        -1.0,
        -7.243868793693764e-08,
        -1.3867389725419343e-07
      ],
      "type": "VEC3"
    },
    {
      "bufferView": 1,
      "byteOffset": 380568,
      "componentType": 5126,
      "count": 16,
      "max": [
        0.9090700149536133,
        0.7048656344413757
      ],
      "min": [
        0.7001562118530273,
        0.00017483203555457294
      ],
      "type": "VEC2"
    },
    {
      "bufferView": 0,
      "byteOffset": 290340,
      "componentType": 5125,
      "count": 24,
      "type": "SCALAR"
    },
    {
      "bufferView": 2,
      "byteOffset": 1142088,
      "componentType": 5126,
      "count": 232,
      "max": [
        2.9421868324279785,
        0.9994949102401733,
        0.7441501617431641
      ],
      "min": [
        -7.6955060958862305,
        -1.0005050897598267,
        -0.8733921051025391
      ],
      "type": "VEC3"
    },
    {
      "bufferView": 2,
      "byteOffset": 1144872,
      "componentType": 5126,
      "count": 232,
      "max": [
        1.0,
        1.0,
        1.0
      ],
      "min": [
        -1.0,
        -1.0,
        -1.0
      ],
      "type": "VEC3"
    },
    {
      "bufferView": 1,
      "byteOffset": 380696,
      "componentType": 5126,
      "count": 232,
      "max": [
        1.0,
        1.0
      ],
      "min": [
        2.9802322387695313e-08,
        0.0
      ],
      "type": "VEC2"
    },
    {
      "bufferView": 0,
      "byteOffset": 290436,
      "componentType": 5125,
      "count": 366,
      "type": "SCALAR"
    },
    {
      "bufferView": 2,
      "byteOffset": 1147656,
      "componentType": 5126,
      "count": 53,
      "max": [
        2.349677085876465,
        0.6347511410713196,
        0.2459942102432251
      ],
      "min": [
        1.079385757446289,
        -0.6355400681495667,
        -0.3514074981212616
      ],
      "type": "VEC3"
    },
    {
      "bufferView": 2,
      "byteOffset": 1148292,
      "componentType": 5126,
      "count": 53,
      "max": [
        1.0,
        1.0,
        0.9455331563949585
      ],
      "min": [
        -1.0,
        -1.0,
        -1.0
      ],
      "type": "VEC3"
    },
    {
      "bufferView": 1,
      "byteOffset": 382552,
      "componentType": 5126,
      "count": 53,
      "max": [
        0.875,
        1.0
      ],
      "min": [
        0.125,
        0.0
      ],
      "type": "VEC2"
    },
    {
      "bufferView": 0,
      "byteOffset": 291900,
      "componentType": 5125,
      "count": 96,
      "type": "SCALAR"
    },
    {
      "bufferView": 2,
      "byteOffset": 1148928,
      "componentType": 5126,
      "count": 376,
      "max": [
        2.4495444297790527,
        0.7266916632652283,
        0.522118091583252
      ],
      "min": [
        0.9810824394226074,
        -0.7341944575309753,
        -0.36062178015708923
      ],
      "type": "VEC3"
    },
    {
      "bufferView": 2,
      "byteOffset": 1153440,
      "componentType": 5126,
      "count": 376,
      "max": [
        1.0,
        1.0,
        1.0
      ],
      "min": [
        -1.0,
        -1.0,
        -1.0
      ],
      "type": "VEC3"
    },
    {
      "bufferView": 1,
      "byteOffset": 382976,
      "componentType": 5126,
      "count": 376,
      "max": [
        0.875,
        1.0
      ],
      "min": [
        0.125,
        0.0
      ],
      "type": "VEC2"
    },
    {
      "bufferView": 0,
      "byteOffset": 292284,
      "componentType": 5125,
      "count": 564,
      "type": "SCALAR"
    },
    {
      "bufferView": 2,
      "byteOffset": 1157952,
      "componentType": 5126,
      "count": 384,
      "max": [
        1.0572991371154785,
        0.9163618087768555,
        2.0484814643859863
      ],
      "min": [
        -1.1126166582107544,
        -0.9161351919174194,
        -0.5024967193603516
      ],
      "type": "VEC3"
    },
    {
      "bufferView": 2,
      "byteOffset": 1162560,
      "componentType": 5126,
      "count": 384,
      "max": [
        0.9952465891838074,
        0.9840553998947144,
        0.9907776117324829
      ],
      "min": [
        -0.9985046982765198,
        -0.997666597366333,
        -0.9960489273071289
      ],
      "type": "VEC3"
    },
    {
      "bufferView": 1,
      "byteOffset": 385984,
      "componentType": 5126,
      "count": 384,
      "max": [
        0.8750001192092896,
        1.0000001192092896
      ],
      "min": [
        0.1250000149011612,
        0.0
      ],
      "type": "VEC2"
    },
    {
      "bufferView": 0,
      "byteOffset": 294540,
      "componentType": 5125,
      "count": 576,
      "type": "SCALAR"
    },
    {
      "bufferView": 2,
      "byteOffset": 1167168,
      "componentType": 5126,
      "count": 420,
      "max": [
        1.4929379224777222,
        1.1165070533752441,
        -0.13315141201019287
      ],
      "min": [
        -1.5896235704421997,
        -1.068285346031189,
        -1.7642381191253662
      ],
      "type": "VEC3"
    },
    {
      "bufferView": 2,
      "byteOffset": 1172208,
      "componentType": 5126,
      "count": 420,
      "max": [
        1.0,
        1.0,
        1.0
      ],
      "min": [
        -1.0,
        -1.0,
        -1.0
      ],
      "type": "VEC3"
    },
    {
      "bufferView": 1,
      "byteOffset": 389056,
      "componentType": 5126,
      "count": 420,
      "max": [
        0.875,
        1.0
      ],
      "min": [
        0.1249999925494194,
        0.0
      ],
      "type": "VEC2"
    },
    {
      "bufferView": 0,
      "byteOffset": 296844,
      "componentType": 5125,
      "count": 708,
      "type": "SCALAR"
    },
    {
      "bufferView": 2,
      "byteOffset": 1177248,
      "componentType": 5126,
      "count": 768,
      "max": [
        0.9729381203651428,
        1.1261448860168457,
        0.661398708820343
      ],
      "min": [
        -1.147813081741333,
        -1.3187339305877686,
        -0.7282911539077759
      ],
      "type": "VEC3"
    },
    {
      "bufferView": 2,
      "byteOffset": 1186464,
      "componentType": 5126,
      "count": 768,
      "max": [
        0.9987741112709045,
        0.9915825128555298,
        0.9688146114349365
      ],
      "min": [
        -0.9910851716995239,
        -0.9830204844474792,
        -0.9994083046913147
      ],
      "type": "VEC3"
    },
    {
      "bufferView": 1,
      "byteOffset": 392416,
      "componentType": 5126,
      "count": 768,
      "max": [
        0.8750001192092896,
        1.0000001192092896
      ],
      "min": [
        0.1250000149011612,
        0.0
      ],
      "type": "VEC2"
    },
    {
      "bufferView": 0,
      "byteOffset": 299676,
      "componentType": 5125,
      "count": 1152,
      "type": "SCALAR"
    },
    {
      "bufferView": 2,
      "byteOffset": 1195680,
      "componentType": 5126,
      "count": 646,
      "max": [
        1.81123685836792,
        2.04054594039917,
        1.5872615575790405
      ],
      "min": [
        -1.871203899383545,
        -2.045414447784424,
        -0.8846130967140198
      ],
      "type": "VEC3"
    },
    {
      "bufferView": 2,
      "byteOffset": 1203432,
      "componentType": 5126,
      "count": 646,
      "max": [
        0.8637399673461914,
        0.8528035283088684,
        1.0
      ],
      "min": [
        -0.8584364056587219,
        -0.863860011100769,
        -1.0
      ],
      "type": "VEC3"
    },
    {
      "bufferView": 1,
      "byteOffset": 398560,
      "componentType": 5126,
      "count": 646,
      "max": [
        0.8750000596046448,
        1.0
      ],
      "min": [
        0.125,
        0.0
      ],
      "type": "VEC2"
    },
    {
      "bufferView": 0,
      "byteOffset": 304284,
      "componentType": 5125,
      "count": 972,
      "type": "SCALAR"
    },
    {
      "bufferView": 2,
      "byteOffset": 1211184,
      "componentType": 5126,
      "count": 704,
      "max": [
        0.7877861857414246,
        0.786490261554718,
        0.55781489610672
      ],
      "min": [
        -0.777976393699646,
        -0.7862364053726196,
        -0.7904121279716492
      ],
      "type": "VEC3"
    },
    {
      "bufferView": 2,
      "byteOffset": 1219632,
      "componentType": 5126,
      "count": 704,
      "max": [
        0.9751277565956116,
        0.9747910499572754,
        0.9934616088867188
      ],
      "min": [
        -0.9748534560203552,
        -0.9697204232215881,
        -0.9916150569915771
      ],
      "type": "VEC3"
    },
    {
      "bufferView": 1,
      "byteOffset": 403728,
      "componentType": 5126,
      "count": 704,
      "max": [
        0.6250000596046448,
        1.0000001192092896
      ],
      "min": [
        0.1250000149011612,
        0.0
      ],
      "type": "VEC2"
    },
    {
      "bufferView": 0,
      "byteOffset": 308172,
      "componentType": 5125,
      "count": 1056,
      "type": "SCALAR"
    },
    {
      "bufferView": 2,
      "byteOffset": 1228080,
      "componentType": 5126,
      "count": 384,
      "max": [
        0.4412975311279297,
        0.48474061489105225,
        0.14036273956298828
      ],
      "min": [
        -0.5258342623710632,
        -0.5457920432090759,
        -0.716546356678009
      ],
      "type": "VEC3"
    },
    {
      "bufferView": 2,
      "byteOffset": 1232688,
      "componentType": 5126,
      "count": 384,
      "max": [
        0.9987741112709045,
        0.9712187647819519,
        0.9688145518302917
      ],
      "min": [
        -0.9829540252685547,
        -0.9664456844329834,
        -0.9994083046913147
      ],
      "type": "VEC3"
    },
    {
      "bufferView": 1,
      "byteOffset": 409360,
      "componentType": 5126,
      "count": 384,
      "max": [
        0.8750001192092896,
        1.0000001192092896
      ],
      "min": [
        0.1250000149011612,
        0.0
      ],
      "type": "VEC2"
    },
    {
      "bufferView": 0,
      "byteOffset": 312396,
      "componentType": 5125,
      "count": 576,
      "type": "SCALAR"
    },
    {
      "bufferView": 2,
      "byteOffset": 1237296,
      "componentType": 5126,
      "count": 2304,
      "max": [
        0.47802719473838806,
        0.47883549332618713,
        0.15345445275306702
      ],
      "min": [
        -0.47032055258750916,
        -0.4695122539997101,
        -0.03621509671211243
      ],
      "type": "VEC3"
    },
    {
      "bufferView": 2,
      "byteOffset": 1264944,
      "componentType": 5126,
      "count": 2304,
      "max": [
        0.9639959931373596,
        0.9639963507652283,
        0.9657869935035706
      ],
      "min": [
        -0.9639959931373596,
        -0.963996171951294,
        -0.9657871127128601
      ],
      "type": "VEC3"
    },
    {
      "bufferView": 1,
      "byteOffset": 412432,
      "componentType": 5126,
      "count": 2304,
      "max": [
        1.0,
        1.0
      ],
      "min": [
        8.881784197001252e-16,
        2.220446049250313e-16
      ],
      "type": "VEC2"
    },
    {
      "bufferView": 0,
      "byteOffset": 314700,
      "componentType": 5125,
      "count": 3456,
      "type": "SCALAR"
    },
    {
      "bufferView": 2,
      "byteOffset": 1292592,
      "componentType": 5126,
      "count": 266,
      "max": [
        1.0,
        1.0,
        1.3389978408813477
      ],
      "min": [
        -1.0,
        -1.0,
        -8.031169891357422
      ],
      "type": "VEC3"
    },
    {
      "bufferView": 2,
      "byteOffset": 1295784,
      "componentType": 5126,
      "count": 266,
      "max": [
        0.9999122619628906,
        1.0,
        0.9776499271392822
      ],
      "min": [
        -0.9992625117301941,
        -1.0,
        -1.0
      ],
      "type": "VEC3"
    },
    {
      "bufferView": 1,
      "byteOffset": 430864,
      "componentType": 5126,
      "count": 266,
      "max": [
        0.875,
        1.0
      ],
      "min": [
        0.125,
        0.0
      ],
      "type": "VEC2"
    },
    {
      "bufferView": 0,
      "byteOffset": 328524,
      "componentType": 5125,
      "count": 444,
      "type": "SCALAR"
    },
    {
      "bufferView": 2,
      "byteOffset": 1298976,
      "componentType": 5126,
      "count": 122,
      "max": [
        1.0046197175979614,
        1.0157703161239624,
        3.1595892906188965
      ],
      "min": [
        -0.9953803420066833,
        -0.8259406089782715,
        -4.651970863342285
      ],
      "type": "VEC3"
    },
    {
      "bufferView": 2,
      "byteOffset": 1300440,
      "componentType": 5126,
      "count": 122,
      "max": [
        1.0,
        0.9995613098144531,
        1.0
      ],
      "min": [
        -1.0,
        -0.9995613098144531,
        -1.0
      ],
      "type": "VEC3"
    },
    {
      "bufferView": 1,
      "byteOffset": 432992,
      "componentType": 5126,
      "count": 122,
      "max": [
        0.875,
        1.0
      ],
      "min": [
        0.125,
        0.0
      ],
      "type": "VEC2"
    },
    {
      "bufferView": 0,
      "byteOffset": 330300,
      "componentType": 5125,
      "count": 204,
      "type": "SCALAR"
    },
    {
      "bufferView": 2,
      "byteOffset": 1301904,
      "componentType": 5126,
      "count": 744,
      "max": [
        8.732606887817383,
        8.67090129852295,
        1.1148738861083984
      ],
      "min": [
        -8.765793800354004,
        -8.78053092956543,
        -0.8851260542869568
      ],
      "type": "VEC3"
    },
    {
      "bufferView": 2,
      "byteOffset": 1310832,
      "componentType": 5126,
      "count": 744,
      "max": [
        1.0,
        1.0,
        1.0
      ],
      "min": [
        -1.0,
        -1.0,
        -1.0
      ],
      "type": "VEC3"
    },
    {
      "bufferView": 1,
      "byteOffset": 433968,
      "componentType": 5126,
      "count": 744,
      "max": [
        1.0,
        1.0
      ],
      "min": [
        0.0,
        0.0
      ],
      "type": "VEC2"
    },
    {
      "bufferView": 0,
      "byteOffset": 331116,
      "componentType": 5125,
      "count": 1200,
      "type": "SCALAR"
    },
    {
      "bufferView": 2,
      "byteOffset": 1319760,
      "componentType": 5126,
      "count": 4608,
      "max": [
        10.859821319580078,
        10.839795112609863,
        0.8997597694396973
      ],
      "min": [
        -10.878826141357422,
        -10.898853302001953,
        -0.8539419174194336
      ],
      "type": "VEC3"
    },
    {
      "bufferView": 2,
      "byteOffset": 1375056,
      "componentType": 5126,
      "count": 4608,
      "max": [
        0.44541284441947937,
        0.44541120529174805,
        0.9993619322776794
      ],
      "min": [
        -0.44541215896606445,
        -0.44541147351264954,
        -0.9993619322776794
      ],
      "type": "VEC3"
    },
    {
      "bufferView": 1,
      "byteOffset": 439920,
      "componentType": 5126,
      "count": 4608,
      "max": [
        1.0,
        1.0
      ],
      "min": [
        8.881784197001252e-16,
        2.220446049250313e-16
      ],
      "type": "VEC2"
    },
    {
      "bufferView": 0,
      "byteOffset": 335916,
      "componentType": 5125,
      "count": 6912,
      "type": "SCALAR"
    },
    {
      "bufferView": 2,
      "byteOffset": 1430352,
      "componentType": 5126,
      "count": 1200,
      "max": [
        7.148892402648926,
        3.662584066390991,
        -2.4533143043518066
      ],
      "min": [
        -7.023052215576172,
        -3.8191614151000977,
        -10.62260913848877
      ],
      "type": "VEC3"
    },
    {
      "bufferView": 2,
      "byteOffset": 1444752,
      "componentType": 5126,
      "count": 1200,
      "max": [
        1.0,
        1.0,
        1.0
      ],
      "min": [
        -1.0,
        -1.0,
        -1.0
      ],
      "type": "VEC3"
    },
    {
      "bufferView": 1,
      "byteOffset": 476784,
      "componentType": 5126,
      "count": 1200,
      "max": [
        0.875,
        1.0
      ],
      "min": [
        0.125,
        0.0
      ],
      "type": "VEC2"
    },
    {
      "bufferView": 0,
      "byteOffset": 363564,
      "componentType": 5125,
      "count": 1800,
      "type": "SCALAR"
    },
    {
      "bufferView": 2,
      "byteOffset": 1459152,
      "componentType": 5126,
      "count": 824,
      "max": [
        9.689201354980469,
        5.29995059967041,
        15.174527168273926
      ],
      "min": [
        -9.253341674804688,
        -5.004189491271973,
        -3.2580323219299316
      ],
      "type": "VEC3"
    },
    {
      "bufferView": 2,
      "byteOffset": 1469040,
      "componentType": 5126,
      "count": 824,
      "max": [
        0.6429120302200317,
        0.9543401598930359,
        1.0
      ],
      "min": [
        -0.6429118514060974,
        -0.9543400406837463,
        -1.0
      ],
      "type": "VEC3"
    },
    {
      "bufferView": 1,
      "byteOffset": 486384,
      "componentType": 5126,
      "count": 824,
      "max": [
        0.875,
        1.0
      ],
      "min": [
        0.125,
        0.0
      ],
      "type": "VEC2"
    },
    {
      "bufferView": 0,
      "byteOffset": 370764,
      "componentType": 5125,
      "count": 1236,
      "type": "SCALAR"
    },
    {
      "bufferView": 2,
      "byteOffset": 1478928,
      "componentType": 5126,
      "count": 24,
      "max": [
        0.5770966410636902,
        0.2106587290763855,
        7.949736595153809
      ],
      "min": [
        -0.5511317849159241,
        -0.3676488995552063,
        -6.952168941497803
      ],
      "type": "VEC3"
    },
    {
      "bufferView": 2,
      "byteOffset": 1479216,
      "componentType": 5126,
      "count": 24,
      "max": [
        0.7735347747802734,
        0.9776067137718201,
        1.0
      ],
      "min": [
        -0.7735347747802734,
        -0.9776067137718201,
        -1.0
      ],
      "type": "VEC3"
    },
    {
      "bufferView": 1,
      "byteOffset": 492976,
      "componentType": 5126,
      "count": 24,
      "max": [
        0.875,
        1.0
      ],
      "min": [
        0.125,
        0.0
      ],
      "type": "VEC2"
    },
    {
      "bufferView": 0,
      "byteOffset": 375708,
      "componentType": 5125,
      "count": 36,
      "type": "SCALAR"
    },
    {
      "bufferView": 2,
      "byteOffset": 1479504,
      "componentType": 5126,
      "count": 136,
      "max": [
        1.0129947662353516,
        6.862599849700928,
        0.9237005114555359
      ],
      "min": [
        -0.9870052933692932,
        -5.493128299713135,
        -1.0762994289398193
      ],
      "type": "VEC3"
    },
    {
      "bufferView": 2,
      "byteOffset": 1481136,
      "componentType": 5126,
      "count": 136,
      "max": [
        1.0,
        1.0,
        1.0
      ],
      "min": [
        -1.0,
        -1.0,
        -1.0
      ],
      "type": "VEC3"
    },
    {
      "bufferView": 1,
      "byteOffset": 493168,
      "componentType": 5126,
      "count": 136,
      "max": [
        0.875,
        1.0
      ],
      "min": [
        0.125,
        0.0
      ],
      "type": "VEC2"
    },
    {
      "bufferView": 0,
      "byteOffset": 375852,
      "componentType": 5125,
      "count": 204,
      "type": "SCALAR"
    },
    {
      "bufferView": 2,
      "byteOffset": 1482768,
      "componentType": 5126,
      "count": 528,
      "max": [
        1.1833078861236572,
        23.161048889160156,
        2.432642936706543
      ],
      "min": [
        -1.1751880645751953,
        -23.47403335571289,
        -2.3231325149536133
      ],
      "type": "VEC3"
    },
    {
      "bufferView": 2,
      "byteOffset": 1489104,
      "componentType": 5126,
      "count": 528,
      "max": [
        1.0,
        1.0,
        1.0
      ],
      "min": [
        -1.0,
        -1.0,
        -1.0
      ],
      "type": "VEC3"
    },
    {
      "bufferView": 1,
      "byteOffset": 494256,
      "componentType": 5126,
      "count": 528,
      "max": [
        0.8750001192092896,
        1.0000001192092896
      ],
      "min": [
        0.125,
        0.0
      ],
      "type": "VEC2"
    },
    {
      "bufferView": 0,
      "byteOffset": 376668,
      "componentType": 5125,
      "count": 792,
      "type": "SCALAR"
    },
    {
      "bufferView": 2,
      "byteOffset": 1495440,
      "componentType": 5126,
      "count": 160,
      "max": [
        1.2129454612731934,
        1.152598261833191,
        5.404345512390137
      ],
      "min": [
        -1.239487648010254,
        -1.1337703466415405,
        -4.758181571960449
      ],
      "type": "VEC3"
    },
    {
      "bufferView": 2,
      "byteOffset": 1497360,
      "componentType": 5126,
      "count": 160,
      "max": [
        1.0,
        1.0,
        1.0
      ],
      "min": [
        -1.0,
        -1.0,
        -1.0
      ],
      "type": "VEC3"
    },
    {
      "bufferView": 1,
      "byteOffset": 498480,
      "componentType": 5126,
      "count": 160,
      "max": [
        0.875,
        1.0
      ],
      "min": [
        0.125,
        0.0
      ],
      "type": "VEC2"
    },
    {
      "bufferView": 0,
      "byteOffset": 379836,
      "componentType": 5125,
      "count": 240,
      "type": "SCALAR"
    },
    {
      "bufferView": 2,
      "byteOffset": 1499280,
      "componentType": 5126,
      "count": 384,
      "max": [
        0.8331778049468994,
        0.8235552310943604,
        1.0601133108139038
      ],
      "min": [
        -0.8141217231750488,
        -0.8786057829856873,
        -0.4416215419769287
      ],
      "type": "VEC3"
    },
    {
      "bufferView": 2,
      "byteOffset": 1503888,
      "componentType": 5126,
      "count": 384,
      "max": [
        0.970196008682251,
        0.9944294095039368,
        0.9863361716270447
      ],
      "min": [
        -0.9788086414337158,
        -0.9935425519943237,
        -0.994120717048645
      ],
      "type": "VEC3"
    },
    {
      "bufferView": 1,
      "byteOffset": 499760,
      "componentType": 5126,
      "count": 384,
      "max": [
        0.8750001192092896,
        1.0000001192092896
      ],
      "min": [
        0.1250000149011612,
        0.0
      ],
      "type": "VEC2"
    },
    {
      "bufferView": 0,
      "byteOffset": 380796,
      "componentType": 5125,
      "count": 576,
      "type": "SCALAR"
    },
    {
      "bufferView": 2,
      "byteOffset": 1508496,
      "componentType": 5126,
      "count": 192,
      "max": [
        0.1547730416059494,
        0.163248673081398,
        0.06137651205062866
      ],
      "min": [
        -0.1690491884946823,
        -0.1605735570192337,
        -0.8088379502296448
      ],
      "type": "VEC3"
    },
    {
      "bufferView": 2,
      "byteOffset": 1510800,
      "componentType": 5126,
      "count": 192,
      "max": [
        0.9951847791671753,
        0.9951847791671753,
        1.0
      ],
      "min": [
        -0.9951847791671753,
        -0.9951847791671753,
        -1.0
      ],
      "type": "VEC3"
    },
    {
      "bufferView": 1,
      "byteOffset": 502832,
      "componentType": 5126,
      "count": 192,
      "max": [
        1.0,
        1.0
      ],
      "min": [
        0.0,
        0.01000000536441803
      ],
      "type": "VEC2"
    },
    {
      "bufferView": 0,
      "byteOffset": 383100,
      "componentType": 5125,
      "count": 372,
      "type": "SCALAR"
    },
    {
      "bufferView": 2,
      "byteOffset": 1513104,
      "componentType": 5126,
      "count": 576,
      "max": [
        1.3147169351577759,
        7.637203216552734,
        0.19394654035568237
      ],
      "min": [
        -0.6852830648422241,
        -7.233923435211182,
        -1.978771686553955
      ],
      "type": "VEC3"
    },
    {
      "bufferView": 2,
      "byteOffset": 1520016,
      "componentType": 5126,
      "count": 576,
      "max": [
        0.9951847195625305,
        0.9951847195625305,
        1.0
      ],
      "min": [
        -0.9951847195625305,
        -0.9951847195625305,
        -1.0
      ],
      "type": "VEC3"
    },
    {
      "bufferView": 1,
      "byteOffset": 504368,
      "componentType": 5126,
      "count": 576,
      "max": [
        1.0,
        1.0
      ],
      "min": [
        0.0,
        0.01000000536441803
      ],
      "type": "VEC2"
    },
    {
      "bufferView": 0,
      "byteOffset": 384588,
      "componentType": 5125,
      "count": 1116,
      "type": "SCALAR"
    },
    {
      "bufferView": 2,
      "byteOffset": 1526928,
      "componentType": 5126,
      "count": 384,
      "max": [
        12.439920425415039,
        13.806770324707031,
        2.1234798431396484
      ],
      "min": [
        -13.70626163482666,
        -14.420496940612793,
        -0.2608047127723694
      ],
      "type": "VEC3"
    },
    {
      "bufferView": 2,
      "byteOffset": 1531536,
      "componentType": 5126,
      "count": 384,
      "max": [
        0.7306739687919617,
        0.7015044689178467,
        0.9998185038566589
      ],
      "min": [
        -0.652223527431488,
        -0.5863880515098572,
        -0.9998763203620911
      ],
      "type": "VEC3"
    },
    {
      "bufferView": 1,
      "byteOffset": 508976,
      "componentType": 5126,
      "count": 384,
      "max": [
        0.8750001192092896,
        1.0000001192092896
      ],
      "min": [
        0.1250000149011612,
        0.0
      ],
      "type": "VEC2"
    },
    {
      "bufferView": 0,
      "byteOffset": 389052,
      "componentType": 5125,
      "count": 576,
      "type": "SCALAR"
    }
  ],
  "asset": {
    "extras": {
      "author": "mihajloolhovij (https://sketchfab.com/mihajloolhovij)",
      "license": "CC-BY-4.0 (http://creativecommons.org/licenses/by/4.0/)",
      "source": "https://sketchfab.com/3d-models/lowpoly-medieval-village-ec3ce59116e741388a5d49c2f7fd113c",
      "title": "Lowpoly Medieval Village"
    },
    "generator": "Sketchfab-16.72.0",
    "version": "2.0"
  },
  "bufferViews": [
    {
      "buffer": 0,
      "byteLength": 391356,
      "name": "floatBufferViews",
      "target": 34963
    },
    {
      "buffer": 0,
      "byteLength": 512048,
      "byteOffset": 391356,
      "byteStride": 8,
      "name": "floatBufferViews",
      "target": 34962
    },
    {
      "buffer": 0,
      "byteLength": 1536144,
      "byteOffset": 903404,
      "byteStride": 12,
      "name": "floatBufferViews",
      "target": 34962
    }
  ],
  "buffers": [
    {
      "byteLength": 2439548,
      "uri": "scene.bin"
    }
  ],
  "materials": [
    {
      "doubleSided": true,
      "name": "Material.001",
      "pbrMetallicRoughness": {
        "baseColorFactor": [
          0.118578,
          0.291192,
          0.0636739,
          1.0
        ],
        "metallicFactor": 0.0,
        "roughnessFactor": 0.9467664983409427
      }
    },
    {
      "doubleSided": true,
      "name": "Wood_2",
      "pbrMetallicRoughness": {
        "baseColorFactor": [
          0.271126,
          0.0706271,
          0.0182367,
          1.0
        ],
        "metallicFactor": 0.0,
        "roughnessFactor": 0.9755216343238361
      }
    },
    {
      "doubleSided": true,
      "name": "Wood_1",
      "pbrMetallicRoughness": {
        "baseColorFactor": [
          0.287787,
          0.101638,
          0.0222393,
          1.0
        ],
        "metallicFactor": 0.0,
        "roughnessFactor": 0.9697055964703978
      }
    },
    {
      "doubleSided": true,
      "name": "House_1",
      "pbrMetallicRoughness": {
        "baseColorFactor": [
          0.800497,
          0.576526,
          0.276989,
          1.0
        ],
        "metallicFactor": 0.0,
        "roughnessFactor": 0.8652734019576431
      }
    },
    {
      "doubleSided": true,
      "name": "Stone",
      "pbrMetallicRoughness": {
        "baseColorFactor": [
          0.287787,
          0.287787,
          0.287787,
          1.0
        ],
        "metallicFactor": 0.0,
        "roughnessFactor": 0.9356488704959268
      }
    },
    {
      "doubleSided": true,
      "name": "Wood_3",
      "pbrMetallicRoughness": {
        "baseColorFactor": [
          0.373506,
          0.0924472,
          0.0105891,
          1.0
        ],
        "metallicFactor": 0.0,
        "roughnessFactor": 0.9672885288971467
      }
    },
    {
      "doubleSided": true,
      "name": "Window",
      "pbrMetallicRoughness": {
        "baseColorFactor": [
          0.12729,
          0.202635,
          0.32801399999999997,
          1.0
        ],
        "metallicFactor": 0.0,
        "roughnessFactor": 0.9562470777344652
      }
    },
    {
      "doubleSided": true,
      "name": "tile",
      "pbrMetallicRoughness": {
        "baseColorFactor": [
          1.0,
          0.244104,
          0.0,
          1.0
        ],
        "metallicFactor": 0.0,
        "roughnessFactor": 0.9134232087986609
      }
    },
    {
      "doubleSided": true,
      "name": "brick",
      "pbrMetallicRoughness": {
        "baseColorFactor": [
          0.467539,
          0.0985078,
          0.0,
          1.0
        ],
        "metallicFactor": 0.0,
        "roughnessFactor": 0.9620200343484379
      }
    },
    {
      "doubleSided": true,
      "name": "Bread",
      "pbrMetallicRoughness": {
        "baseColorFactor": [
          0.800142,
          0.634346,
          0.153839,
          1.0
        ],
        "metallicFactor": 0.0,
        "roughnessFactor": 0.8580316809263775
      }
    },
    {
      "doubleSided": true,
      "name": "Metal",
      "pbrMetallicRoughness": {
        "baseColorFactor": [
          0.207123,
          0.207123,
          0.207123,
          1.0
        ],
        "metallicFactor": 0.0,
        "roughnessFactor": 0.9536858892296312
      }
    },
    {
      "doubleSided": true,
      "name": "Material",
      "pbrMetallicRoughness": {
        "baseColorFactor": [
          0.560281,
          0.312239,
          0.0176064,
          1.0
        ],
        "metallicFactor": 0.0,
        "roughnessFactor": 0.9231462864862675
      }
    }
  ],
  "meshes": [
    {
      "name": "Cone_Material.001_0",
      "primitives": [
        {
          "attributes": {
            "NORMAL": 1,
            "POSITION": 0,
            "TEXCOORD_0": 2
          },
          "indices": 3,
          "material": 0,
          "mode": 4
        }
      ]
    },
    {
      "name": "Cone_Wood 2 _0",
      "primitives": [
        {
          "attributes": {
            "NORMAL": 5,
            "POSITION": 4,
            "TEXCOORD_0": 6
          },
          "indices": 7,
          "material": 1,
          "mode": 4
        }
      ]
    },
    {
      "name": "Cone.004_Material.001_0",
      "primitives": [
        {
          "attributes": {
            "NORMAL": 9,
            "POSITION": 8,
            "TEXCOORD_0": 10
          },
          "indices": 11,
          "material": 0,
          "mode": 4
        }
      ]
    },
    {
      "name": "Cone.004_Wood 2 _0",
      "primitives": [
        {
          "attributes": {
            "NORMAL": 13,
            "POSITION": 12,
            "TEXCOORD_0": 14
          },
          "indices": 15,
          "material": 1,
          "mode": 4
        }
      ]
    },
    {
      "name": "Cube.079_Wood 1 _0",
      "primitives": [
        {
          "attributes": {
            "NORMAL": 17,
            "POSITION": 16,
            "TEXCOORD_0": 18
          },
          "indices": 19,
          "material": 2,
          "mode": 4
        }
      ]
    },
    {
      "name": "Cube.079_House 1 _0",
      "primitives": [
        {
          "attributes": {
            "NORMAL": 21,
            "POSITION": 20,
            "TEXCOORD_0": 22
          },
          "indices": 23,
          "material": 3,
          "mode": 4
        }
      ]
    },
    {
      "name": "Cube.079_Stone_0",
      "primitives": [
        {
          "attributes": {
            "NORMAL": 25,
            "POSITION": 24,
            "TEXCOORD_0": 26
          },
          "indices": 27,
          "material": 4,
          "mode": 4
        }
      ]
    },
    {
      "name": "Cube.079_Wood 2 _0",
      "primitives": [
        {
          "attributes": {
            "NORMAL": 29,
            "POSITION": 28,
            "TEXCOORD_0": 30
          },
          "indices": 31,
          "material": 1,
          "mode": 4
        }
      ]
    },
    {
      "name": "Cube.079_Wood 3 _0",
      "primitives": [
        {
          "attributes": {
            "NORMAL": 33,
            "POSITION": 32,
            "TEXCOORD_0": 34
          },
          "indices": 35,
          "material": 5,
          "mode": 4
        }
      ]
    },
    {
      "name": "Cube.079_Window _0",
      "primitives": [
        {
          "attributes": {
            "NORMAL": 37,
            "POSITION": 36,
            "TEXCOORD_0": 38
          },
          "indices": 39,
          "material": 6,
          "mode": 4
        }
      ]
    },
    {
      "name": "Cube.079_tile_0",
      "primitives": [
        {
          "attributes": {
            "NORMAL": 41,
            "POSITION": 40,
            "TEXCOORD_0": 42
          },
          "indices": 43,
          "material": 7,
          "mode": 4
        }
      ]
    },
    {
      "name": "Cube.079_brick _0",
      "primitives": [
        {
          "attributes": {
            "NORMAL": 45,
            "POSITION": 44,
            "TEXCOORD_0": 46
          },
          "indices": 47,
          "material": 8,
          "mode": 4
        }
      ]
    },
    {
      "name": "Cube.136_tile_0",
      "primitives": [
        {
          "attributes": {
            "NORMAL": 49,
            "POSITION": 48,
            "TEXCOORD_0": 50
          },
          "indices": 51,
          "material": 7,
          "mode": 4
        }
      ]
    },
    {
      "name": "Cube.136_House 1 _0",
      "primitives": [
        {
          "attributes": {
            "NORMAL": 53,
            "POSITION": 52,
            "TEXCOORD_0": 54
          },
          "indices": 55,
          "material": 3,
          "mode": 4
        }
      ]
    },
    {
      "name": "Cube.136_Wood 1 _0",
      "primitives": [
        {
          "attributes": {
            "NORMAL": 57,
            "POSITION": 56,
            "TEXCOORD_0": 58
          },
          "indices": 59,
          "material": 2,
          "mode": 4
        }
      ]
    },
    {
      "name": "Cube.136_Wood 2 _0",
      "primitives": [
        {
          "attributes": {
            "NORMAL": 61,
            "POSITION": 60,
            "TEXCOORD_0": 62
          },
          "indices": 63,
          "material": 1,
          "mode": 4
        }
      ]
    },
    {
      "name": "Cube.136_Stone_0",
      "primitives": [
        {
          "attributes": {
            "NORMAL": 65,
            "POSITION": 64,
            "TEXCOORD_0": 66
          },
          "indices": 67,
          "material": 4,
          "mode": 4
        }
      ]
    },
    {
      "name": "Cube.136_Window _0",
      "primitives": [
        {
          "attributes": {
            "NORMAL": 69,
            "POSITION": 68,
            "TEXCOORD_0": 70
          },
          "indices": 71,
          "material": 6,
          "mode": 4
        }
      ]
    },
    {
      "name": "Cube.136_Wood 3 _0",
      "primitives": [
        {
          "attributes": {
            "NORMAL": 73,
            "POSITION": 72,
            "TEXCOORD_0": 74
          },
          "indices": 75,
          "material": 5,
          "mode": 4
        }
      ]
    },
    {
      "name": "Cube.136_brick _0",
      "primitives": [
        {
          "attributes": {
            "NORMAL": 77,
            "POSITION": 76,
            "TEXCOORD_0": 78
          },
          "indices": 79,
          "material": 8,
          "mode": 4
        }
      ]
    },
    {
      "name": "Cube.219_Bread_0",
      "primitives": [
        {
          "attributes": {
            "NORMAL": 81,
            "POSITION": 80,
            "TEXCOORD_0": 82
          },
          "indices": 83,
          "material": 9,
          "mode": 4
        }
      ]
    },
    {
      "name": "Cube.219_Wood 1 _0",
      "primitives": [
        {
          "attributes": {
            "NORMAL": 85,
            "POSITION": 84,
            "TEXCOORD_0": 86
          },
          "indices": 87,
          "material": 2,
          "mode": 4
        }
      ]
    },
    {
      "name": "Cube.219_Metal _0",
      "primitives": [
        {
          "attributes": {
            "NORMAL": 89,
            "POSITION": 88,
            "TEXCOORD_0": 90
          },
          "indices": 91,
          "material": 10,
          "mode": 4
        }
      ]
    },
    {
      "name": "Cube.235_Stone_0",
      "primitives": [
        {
          "attributes": {
            "NORMAL": 93,
            "POSITION": 92,
            "TEXCOORD_0": 94
          },
          "indices": 95,
          "material": 4,
          "mode": 4
        }
      ]
    },
    {
      "name": "Cube.236_Bread_0",
      "primitives": [
        {
          "attributes": {
            "NORMAL": 97,
            "POSITION": 96,
            "TEXCOORD_0": 98
          },
          "indices": 99,
          "material": 9,
          "mode": 4
        }
      ]
    },
    {
      "name": "Cube.259_tile_0",
      "primitives": [
        {
          "attributes": {
            "NORMAL": 101,
            "POSITION": 100,
            "TEXCOORD_0": 102
          },
          "indices": 103,
          "material": 7,
          "mode": 4
        }
      ]
    },
    {
      "name": "Cube.259_Wood 2 _0",
      "primitives": [
        {
          "attributes": {
            "NORMAL": 105,
            "POSITION": 104,
            "TEXCOORD_0": 106
          },
          "indices": 107,
          "material": 1,
          "mode": 4
        }
      ]
    },
    {
      "name": "Cube.259_Wood 1 _0",
      "primitives": [
        {
          "attributes": {
            "NORMAL": 109,
            "POSITION": 108,
            "TEXCOORD_0": 110
          },
          "indices": 111,
          "material": 2,
          "mode": 4
        }
      ]
    },
    {
      "name": "Cube.259_Wood 3 _0",
      "primitives": [
        {
          "attributes": {
            "NORMAL": 113,
            "POSITION": 112,
            "TEXCOORD_0": 114
          },
          "indices": 115,
          "material": 5,
          "mode": 4
        }
      ]
    },
    {
      "name": "Cube.259_Window _0",
      "primitives": [
        {
          "attributes": {
            "NORMAL": 117,
            "POSITION": 116,
            "TEXCOORD_0": 118
          },
          "indices": 119,
          "material": 6,
          "mode": 4
        }
      ]
    },
    {
      "name": "Cube.269_Stone_0",
      "primitives": [
        {
          "attributes": {
            "NORMAL": 121,
            "POSITION": 120,
            "TEXCOORD_0": 122
          },
          "indices": 123,
          "material": 4,
          "mode": 4
        }
      ]
    },
    {
      "name": "Cube.269_Wood 2 _0",
      "primitives": [
        {
          "attributes": {
            "NORMAL": 125,
            "POSITION": 124,
            "TEXCOORD_0": 126
          },
          "indices": 127,
          "material": 1,
          "mode": 4
        }
      ]
    },
    {
      "name": "Cube.269_Wood 1 _0",
      "primitives": [
        {
          "attributes": {
            "NORMAL": 129,
            "POSITION": 128,
            "TEXCOORD_0": 130
          },
          "indices": 131,
          "material": 2,
          "mode": 4
        }
      ]
    },
    {
      "name": "Cube.269_tile_0",
      "primitives": [
        {
          "attributes": {
            "NORMAL": 133,
            "POSITION": 132,
            "TEXCOORD_0": 134
          },
          "indices": 135,
          "material": 7,
          "mode": 4
        }
      ]
    },
    {
      "name": "Cube.269_House 1 _0",
      "primitives": [
        {
          "attributes": {
            "NORMAL": 137,
            "POSITION": 136,
            "TEXCOORD_0": 138
          },
          "indices": 139,
          "material": 3,
          "mode": 4
        }
      ]
    },
    {
      "name": "Cube.321_Wood 1 _0",
      "primitives": [
        {
          "attributes": {
            "NORMAL": 141,
            "POSITION": 140,
            "TEXCOORD_0": 142
          },
          "indices": 143,
          "material": 2,
          "mode": 4
        }
      ]
    },
    {
      "name": "Cube.321_Material_0",
      "primitives": [
        {
          "attributes": {
            "NORMAL": 145,
            "POSITION": 144,
            "TEXCOORD_0": 146
          },
          "indices": 147,
          "material": 11,
          "mode": 4
        }
      ]
    },
    {
      "name": "Cube.321_Metal _0",
      "primitives": [
        {
          "attributes": {
            "NORMAL": 149,
            "POSITION": 148,
            "TEXCOORD_0": 150
          },
          "indices": 151,
          "material": 10,
          "mode": 4
        }
      ]
    },
    {
      "name": "Cube.325_Material.001_0",
      "primitives": [
        {
          "attributes": {
            "NORMAL": 153,
            "POSITION": 152,
            "TEXCOORD_0": 154
          },
          "indices": 155,
          "material": 0,
          "mode": 4
        }
      ]
    },
    {
      "name": "Cube.325_Wood 1 _0",
      "primitives": [
        {
          "attributes": {
            "NORMAL": 157,
            "POSITION": 156,
            "TEXCOORD_0": 158
          },
          "indices": 159,
          "material": 2,
          "mode": 4
        }
      ]
    },
    {
      "name": "Cube.344_Bread_0",
      "primitives": [
        {
          "attributes": {
            "NORMAL": 161,
            "POSITION": 160,
            "TEXCOORD_0": 162
          },
          "indices": 163,
          "material": 9,
          "mode": 4
        }
      ]
    },
    {
      "name": "Cube.344_Wood 1 _0",
      "primitives": [
        {
          "attributes": {
            "NORMAL": 165,
            "POSITION": 164,
            "TEXCOORD_0": 166
          },
          "indices": 167,
          "material": 2,
          "mode": 4
        }
      ]
    },
    {
      "name": "Cube.345_Material_0",
      "primitives": [
        {
          "attributes": {
            "NORMAL": 169,
            "POSITION": 168,
            "TEXCOORD_0": 170
          },
          "indices": 171,
          "material": 11,
          "mode": 4
        }
      ]
    },
    {
      "name": "Cube.345_Bread_0",
      "primitives": [
        {
          "attributes": {
            "NORMAL": 173,
            "POSITION": 172,
            "TEXCOORD_0": 174
          },
          "indices": 175,
          "material": 9,
          "mode": 4
        }
      ]
    },
    {
      "name": "Cube.345_Wood 2 _0",
      "primitives": [
        {
          "attributes": {
            "NORMAL": 177,
            "POSITION": 176,
            "TEXCOORD_0": 178
          },
          "indices": 179,
          "material": 1,
          "mode": 4
        }
      ]
    },
    {
      "name": "Cube.349_Wood 1 _0",
      "primitives": [
        {
          "attributes": {
            "NORMAL": 181,
            "POSITION": 180,
            "TEXCOORD_0": 182
          },
          "indices": 183,
          "material": 2,
          "mode": 4
        }
      ]
    },
    {
      "name": "Cube.350_Wood 1 _0",
      "primitives": [
        {
          "attributes": {
            "NORMAL": 185,
            "POSITION": 184,
            "TEXCOORD_0": 186
          },
          "indices": 187,
          "material": 2,
          "mode": 4
        }
      ]
    },
    {
      "name": "Cube.373_Wood 1 _0",
      "primitives": [
        {
          "attributes": {
            "NORMAL": 189,
            "POSITION": 188,
            "TEXCOORD_0": 190
          },
          "indices": 191,
          "material": 2,
          "mode": 4
        }
      ]
    },
    {
      "name": "Cube.373_Metal _0",
      "primitives": [
        {
          "attributes": {
            "NORMAL": 193,
            "POSITION": 192,
            "TEXCOORD_0": 194
          },
          "indices": 195,
          "material": 10,
          "mode": 4
        }
      ]
    },
    {
      "name": "Cube.386_Stone_0",
      "primitives": [
        {
          "attributes": {
            "NORMAL": 197,
            "POSITION": 196,
            "TEXCOORD_0": 198
          },
          "indices": 199,
          "material": 4,
          "mode": 4
        }
      ]
    },
    {
      "name": "Cube.386_Wood 2 _0",
      "primitives": [
        {
          "attributes": {
            "NORMAL": 201,
            "POSITION": 200,
            "TEXCOORD_0": 202
          },
          "indices": 203,
          "material": 1,
          "mode": 4
        }
      ]
    },
    {
      "name": "Cube.386_tile_0",
      "primitives": [
        {
          "attributes": {
            "NORMAL": 205,
            "POSITION": 204,
            "TEXCOORD_0": 206
          },
          "indices": 207,
          "material": 7,
          "mode": 4
        }
      ]
    },
    {
      "name": "Cube.471_Wood 3 _0",
      "primitives": [
        {
          "attributes": {
            "NORMAL": 209,
            "POSITION": 208,
            "TEXCOORD_0": 210
          },
          "indices": 211,
          "material": 5,
          "mode": 4
        }
      ]
    },
    {
      "name": "Cube.474_Wood 3 _0",
      "primitives": [
        {
          "attributes": {
            "NORMAL": 213,
            "POSITION": 212,
            "TEXCOORD_0": 214
          },
          "indices": 215,
          "material": 5,
          "mode": 4
        }
      ]
    },
    {
      "name": "Cube.475_Wood 3 _0",
      "primitives": [
        {
          "attributes": {
            "NORMAL": 217,
            "POSITION": 216,
            "TEXCOORD_0": 218
          },
          "indices": 219,
          "material": 5,
          "mode": 4
        }
      ]
    },
    {
      "name": "Cube.479_Material.001_0",
      "primitives": [
        {
          "attributes": {
            "NORMAL": 221,
            "POSITION": 220,
            "TEXCOORD_0": 222
          },
          "indices": 223,
          "material": 0,
          "mode": 4
        }
      ]
    },
    {
      "name": "Cube.479_Wood 2 _0",
      "primitives": [
        {
          "attributes": {
            "NORMAL": 225,
            "POSITION": 224,
            "TEXCOORD_0": 226
          },
          "indices": 227,
          "material": 1,
          "mode": 4
        }
      ]
    },
    {
      "name": "Cylinder.007_Wood 2 _0",
      "primitives": [
        {
          "attributes": {
            "NORMAL": 229,
            "POSITION": 228,
            "TEXCOORD_0": 230
          },
          "indices": 231,
          "material": 1,
          "mode": 4
        }
      ]
    },
    {
      "name": "Cylinder.007_Material.001_0",
      "primitives": [
        {
          "attributes": {
            "NORMAL": 233,
            "POSITION": 232,
            "TEXCOORD_0": 234
          },
          "indices": 235,
          "material": 0,
          "mode": 4
        }
      ]
    }
  ],
  "nodes": [
    {
      "children": [
        1
      ],
      "matrix": [
        1.0,
        0.0,
        0.0,
        0.0,
        0.0,
        2.220446049250313e-16,
        -1.0,
        0.0,
        0.0,
        1.0,
        2.220446049250313e-16,
        0.0,
        0.0,
        0.0,
        0.0,
        1.0
      ],
      "name": "Sketchfab_model"
    },
    {
      "children": [
        2
      ],
      "matrix": [
        0.009999999776482582,
        0.0,
        0.0,
        0.0,
        0.0,
        0.0,
        0.009999999776482582,
        0.0,
        0.0,
        -0.009999999776482582,
        0.0,
        0.0,
        0.0,
        0.0,
        0.0,
        1.0
      ],
      "name": "Assets_lowpoly_village_ .fbx"
    },
    {
      "children": [
        3,
        6,
        9,
        18,
        27,
        31,
        33,
        35,
        41,
        47,
        51,
        54,
        57,
        61,
        63,
        65,
        68,
        72,
        74,
        76,
        78,
        81,
        84
      ],
      "name": "RootNode"
    },
    {
      "children": [
        4,
        5
      ],
      "matrix": [
        150.6684112548828,
        0.0,
        0.0,
        0.0,
        0.0,
        -2.4546999924533366e-05,
        -150.66841125488082,
        0.0,
        0.0,
        150.66841125488082,
        -2.4546999924533366e-05,
        0.0,
        4739.4599609375,
        845.6122436523438,
        -1700.6004638671875,
        1.0
      ],
      "name": "Cone"
    },
    {
      "mesh": 0,
      "name": "Cone_Material.001_0"
    },
    {
      "mesh": 1,
      "name": "Cone_Wood 2 _0"
    },
    {
      "children": [
        7,
        8
      ],
      "matrix": [
        140.8588104248047,
        0.0,
        0.0,
        0.0,
        0.0,
        -2.2948813092734365e-05,
        -140.85881042480284,
        0.0,
        0.0,
        140.85881042480284,
        -2.2948813092734365e-05,
        0.0,
        2020.130126953125,
        721.80126953125,
        -2948.738037109375,
        1.0
      ],
      "name": "Cone.004"
    },
    {
      "mesh": 2,
      "name": "Cone.004_Material.001_0"
    },
    {
      "mesh": 3,
      "name": "Cone.004_Wood 2 _0"
    },
    {
      "children": [
        10,
        11,
        12,
        13,
        14,
        15,
        16,
        17
      ],
      "matrix": [
        4.57423861119125e-06,
        0.0,
        60.58762741088849,
        0.0,
        535.5648193359289,
        -8.725458434349367e-05,
        -4.04340189290954e-05,
        0.0,
        6.8977092178404e-06,
        42.33783721923772,
        -5.170488586299328e-13,
        0.0,
        256.499267578125,
        777.7854614257813,
        -2971.938232421875,
        1.0
      ],
      "name": "Cube.079"
    },
    {
      "mesh": 4,
      "name": "Cube.079_Wood 1 _0"
    },
    {
      "mesh": 5,
      "name": "Cube.079_House 1 _0"
    },
    {
      "mesh": 6,
      "name": "Cube.079_Stone_0"
    },
    {
      "mesh": 7,
      "name": "Cube.079_Wood 2 _0"
    },
    {
      "mesh": 8,
      "name": "Cube.079_Wood 3 _0"
    },
    {
      "mesh": 9,
      "name": "Cube.079_Window _0"
    },
    {
      "mesh": 10,
      "name": "Cube.079_tile_0"
    },
    {
      "mesh": 11,
      "name": "Cube.079_brick _0"
    },
    {
      "children": [
        19,
        20,
        21,
        22,
        23,
        24,
        25,
        26
      ],
      "matrix": [
        -67.23825073242088,
        5.878154788224576e-06,
        1.0152689807874662e-05,
        0.0,
        4.830109991121136e-06,
        -60.85084538033454,
        67.2195100709932,
        0.0,
        1.1171409707245197e-05,
        49.847320732255056,
        45.12457176939856,
        0.0,
        3629.66259765625,
        667.6002197265625,
        -3012.5341796875,
        1.0
      ],
      "name": "Cube.136"
    },
    {
      "mesh": 12,
      "name": "Cube.136_tile_0"
    },
    {
      "mesh": 13,
      "name": "Cube.136_House 1 _0"
    },
    {
      "mesh": 14,
      "name": "Cube.136_Wood 1 _0"
    },
    {
      "mesh": 15,
      "name": "Cube.136_Wood 2 _0"
    },
    {
      "mesh": 16,
      "name": "Cube.136_Stone_0"
    },
    {
      "mesh": 17,
      "name": "Cube.136_Window _0"
    },
    {
      "mesh": 18,
      "name": "Cube.136_Wood 3 _0"
    },
    {
      "mesh": 19,
      "name": "Cube.136_brick _0"
    },
    {
      "children": [
        28,
        29,
        30
      ],
      "matrix": [
        56.1358528137207,
        0.0,
        0.0,
        0.0,
        0.0,
        4.238138979618179e-06,
        -56.13585281372054,
        0.0,
        0.0,
        56.13585281372054,
        4.238138979618179e-06,
        0.0,
        3651.75439453125,
        158.78016662597656,
        -2432.836669921875,
        1.0
      ],
      "name": "Cube.219"
    },
    {
      "mesh": 20,
      "name": "Cube.219_Bread_0"
    },
    {
      "mesh": 21,
      "name": "Cube.219_Wood 1 _0"
    },
    {
      "mesh": 22,
      "name": "Cube.219_Metal _0"
    },
    {
      "children": [
        32
      ],
      "matrix": [
        83.46007537841797,
        0.0,
        0.0,
        0.0,
        -0.0,
        -1.3597372182745317e-05,
        -83.46007537841686,
        0.0,
        0.0,
        83.46007537841686,
        -1.3597372182745317e-05,
        0.0,
        -1436.2093505859375,
        33.10588455200195,
        -2609.81103515625,
        1.0
      ],
      "name": "Cube.235"
    },
    {
      "mesh": 23,
      "name": "Cube.235_Stone_0"
    },
    {
      "children": [
        34
      ],
      "matrix": [
        72.40264129638672,
        0.0,
        0.0,
        0.0,
        -0.0,
        -8.046114664217947e-06,
        -49.38669967651302,
        0.0,
        0.0,
        72.40264129638577,
        -1.1795887509770394e-05,
        0.0,
        -1795.7841796875,
        65.93180847167969,
        -2598.000244140625,
        1.0
      ],
      "name": "Cube.236"
    },
    {
      "mesh": 24,
      "name": "Cube.236_Bread_0"
    },
    {
      "children": [
        36,
        37,
        38,
        39,
        40
      ],
      "matrix": [
        98.22659301757365,
        -5.369361858710943e-07,
        -2.9663609276345142e-05,
        0.0,
        -2.2401523934161946e-05,
        -70.95611209713859,
        -72.8949215220752,
        0.0,
        -1.5594782363841013e-05,
        54.05598570591135,
        -52.61824145195162,
        0.0,
        -1758.729736328125,
        523.2001953125,
        -3067.6630859375,
        1.0
      ],
      "name": "Cube.259"
    },
    {
      "mesh": 25,
      "name": "Cube.259_tile_0"
    },
    {
      "mesh": 26,
      "name": "Cube.259_Wood 2 _0"
    },
    {
      "mesh": 27,
      "name": "Cube.259_Wood 1 _0"
    },
    {
      "mesh": 28,
      "name": "Cube.259_Wood 3 _0"
    },
    {
      "mesh": 29,
      "name": "Cube.259_Window _0"
    },
    {
      "children": [
        42,
        43,
        44,
        45,
        46
      ],
      "matrix": [
        54.505859375,
        0.0,
        0.0,
        0.0,
        0.0,
        -9.561789590046272e-06,
        -58.689846038817585,
        0.0,
        0.0,
        45.030525207518934,
        -7.336403760180072e-06,
        0.0,
        4921.802734375,
        1356.5245361328125,
        -51.15586471557617,
        1.0
      ],
      "name": "Cube.269"
    },
    {
      "mesh": 30,
      "name": "Cube.269_Stone_0"
    },
    {
      "mesh": 31,
      "name": "Cube.269_Wood 2 _0"
    },
    {
      "mesh": 32,
      "name": "Cube.269_Wood 1 _0"
    },
    {
      "mesh": 33,
      "name": "Cube.269_tile_0"
    },
    {
      "mesh": 34,
      "name": "Cube.269_House 1 _0"
    },
    {
      "children": [
        48,
        49,
        50
      ],
      "matrix": [
        74.13800048828125,
        0.0,
        0.0,
        0.0,
        -0.0,
        -1.207861340830271e-05,
        -74.13800048828027,
        0.0,
        0.0,
        428.3358154296818,
        -6.978476205765879e-05,
        0.0,
        -3184.95751953125,
        371.59002685546875,
        -2916.530029296875,
        1.0
      ],
      "name": "Cube.321"
    },
    {
      "mesh": 35,
      "name": "Cube.321_Wood 1 _0"
    },
    {
      "mesh": 36,
      "name": "Cube.321_Material_0"
    },
    {
      "mesh": 37,
      "name": "Cube.321_Metal _0"
    },
    {
      "children": [
        52,
        53
      ],
      "matrix": [
        100.0,
        0.0,
        0.0,
        0.0,
        -0.0,
        -1.629206793918314e-05,
        -99.99999999999868,
        0.0,
        0.0,
        99.99999999999868,
        -1.629206793918314e-05,
        0.0,
        -2515.023193359375,
        176.81996154785156,
        -2410.682861328125,
        1.0
      ],
      "name": "Cube.325"
    },
    {
      "mesh": 38,
      "name": "Cube.325_Material.001_0"
    },
    {
      "mesh": 39,
      "name": "Cube.325_Wood 1 _0"
    },
    {
      "children": [
        55,
        56
      ],
      "matrix": [
        81.40516351547014,
        -6.4021427628720865e-06,
        132.56706000721897,
        0.0,
        132.56706000721482,
        -3.577073361147082e-05,
        -81.40516351546927,
        0.0,
        3.383248280523172e-05,
        155.56616210937077,
        -1.3262585817791842e-05,
        0.0,
        -3381.543701171875,
        136.5131072998047,
        -2368.439453125,
        1.0
      ],
      "name": "Cube.344"
    },
    {
      "mesh": 40,
      "name": "Cube.344_Bread_0"
    },
    {
      "mesh": 41,
      "name": "Cube.344_Wood 1 _0"
    },
    {
      "children": [
        58,
        59,
        60
      ],
      "matrix": [
        236.22601318359375,
        0.0,
        0.0,
        0.0,
        -0.0,
        -3.848610255789482e-05,
        -236.22601318359062,
        0.0,
        0.0,
        236.22601318359062,
        -3.848610255789482e-05,
        0.0,
        -3128.306884765625,
        174.57505798339844,
        386.1456298828125,
        1.0
      ],
      "name": "Cube.345"
    },
    {
      "mesh": 42,
      "name": "Cube.345_Material_0"
    },
    {
      "mesh": 43,
      "name": "Cube.345_Bread_0"
    },
    {
      "mesh": 44,
      "name": "Cube.345_Wood 2 _0"
    },
    {
      "children": [
        62
      ],
      "matrix": [
        1.1560406210864798e-05,
        0.0,
        153.12222290039017,
        0.0,
        285.3203124999954,
        -4.6484579220143485e-05,
        -2.1541084290758756e-05,
        0.0,
        3.976596382790351e-06,
        24.40817451477018,
        -2.9808369068903893e-13,
        0.0,
        -1026.058349609375,
        221.2767333984375,
        -1604.988037109375,
        1.0
      ],
      "name": "Cube.349"
    },
    {
      "mesh": 45,
      "name": "Cube.349_Wood 1 _0"
    },
    {
      "children": [
        64
      ],
      "matrix": [
        133.26376342773438,
        0.0,
        0.0,
        0.0,
        -0.0,
        -2.171142287595878e-05,
        -133.2637634277326,
        0.0,
        0.0,
        21.223119735717493,
        -3.457685086157325e-06,
        0.0,
        -1856.51318359375,
        92.80777740478516,
        -1424.119873046875,
        1.0
      ],
      "name": "Cube.350"
    },
    {
      "mesh": 46,
      "name": "Cube.350_Wood 1 _0"
    },
    {
      "children": [
        66,
        67
      ],
      "matrix": [
        9.140078823508368,
        6.047568928013866e-07,
        -12.76256782840752,
        0.0,
        -12.762567828407533,
        3.4071845513831265e-07,
        -9.140078823508365,
        0.0,
        -5.643071385084672e-07,
        117.93817138671865,
        5.18438853171499e-06,
        0.0,
        -3393.83935546875,
        104.00751495361328,
        -914.5576171875,
        1.0
      ],
      "name": "Cube.373"
    },
    {
      "mesh": 47,
      "name": "Cube.373_Wood 1 _0"
    },
    {
      "mesh": 48,
      "name": "Cube.373_Metal _0"
    },
    {
      "children": [
        69,
        70,
        71
      ],
      "matrix": [
        26.175461227761964,
        6.998252275129561e-07,
        -15.9845315514515,
        0.0,
        -31.184441687924995,
        1.0816535730347734e-05,
        -51.06606607045387,
        0.0,
        2.292307467532473e-06,
        30.67018127441355,
        5.096550473250907e-06,
        0.0,
        2097.44677734375,
        304.7779541015625,
        1591.4857177734375,
        1.0
      ],
      "name": "Cube.386"
    },
    {
      "mesh": 49,
      "name": "Cube.386_Stone_0"
    },
    {
      "mesh": 50,
      "name": "Cube.386_Wood 2 _0"
    },
    {
      "mesh": 51,
      "name": "Cube.386_tile_0"
    },
    {
      "children": [
        73
      ],
      "matrix": [
        53.836273193359375,
        0.0,
        0.0,
        0.0,
        0.0,
        -8.77104220458635e-06,
        -53.836273193358664,
        0.0,
        0.0,
        223.08984374999704,
        -3.6345948909167515e-05,
        0.0,
        3477.10791015625,
        233.96224975585938,
        4737.044921875,
        1.0
      ],
      "name": "Cube.471"
    },
    {
      "mesh": 52,
      "name": "Cube.471_Wood 3 _0"
    },
    {
      "children": [
        75
      ],
      "matrix": [
        -53.83627319335876,
        6.593042964633423e-15,
        8.129051091280766e-06,
        0.0,
        8.129051091280742e-06,
        4.064525566251984e-06,
        53.8362731933586,
        0.0,
        -2.515873630124371e-12,
        223.08984374999932,
        -1.684281464969708e-05,
        0.0,
        3478.02587890625,
        512.1181640625,
        2944.434814453125,
        1.0
      ],
      "name": "Cube.474"
    },
    {
      "mesh": 53,
      "name": "Cube.474_Wood 3 _0"
    },
    {
      "children": [
        77
      ],
      "matrix": [
        -43.90440368652293,
        -6.62938051856063e-06,
        -1.1621398891262036e-21,
        0.0,
        -7.761050110457981e-12,
        5.139911288461165e-05,
        -315.48550415038636,
        0.0,
        6.629380518560542e-06,
        -43.90440368652235,
        -7.152935296399098e-06,
        0.0,
        2322.756591796875,
        231.12535095214844,
        4703.81298828125,
        1.0
      ],
      "name": "Cube.475"
    },
    {
      "mesh": 54,
      "name": "Cube.475_Wood 3 _0"
    },
    {
      "children": [
        79,
        80
      ],
      "matrix": [
        498.2115173339844,
        0.0,
        0.0,
        0.0,
        0.0,
        -8.116895888488792e-05,
        -498.2115173339778,
        0.0,
        0.0,
        498.2115173339778,
        -8.116895888488792e-05,
        0.0,
        3639.5771484375,
        405.6683044433594,
        904.1624145507813,
        1.0
      ],
      "name": "Cube.479"
    },
    {
      "mesh": 55,
      "name": "Cube.479_Material.001_0"
    },
    {
      "mesh": 56,
      "name": "Cube.479_Wood 2 _0"
    },
    {
      "children": [
        82,
        83
      ],
      "matrix": [
        34.90105438232422,
        0.0,
        0.0,
        0.0,
        0.0,
        -5.686103491459517e-06,
        -34.90105438232376,
        0.0,
        0.0,
        402.3507690429634,
        -6.555126064630632e-05,
        0.0,
        4597.53759765625,
        784.7847900390625,
        2976.3740234375,
        1.0
      ],
      "name": "Cylinder.007"
    },
    {
      "mesh": 57,
      "name": "Cylinder.007_Wood 2 _0"
    },
    {
      "mesh": 58,
      "name": "Cylinder.007_Material.001_0"
    },
    {
      "children": [
        85
      ],
      "matrix": [
        99.20728856069918,
        -4.431440826041989,
        -11.759026437618301,
        0.0,
        12.113315056367965,
        58.62237211618309,
        80.10421390798945,
        0.0,
        3.3436496521025245,
        -80.8936327326235,
        58.69446473325588,
        0.0,
        0.0,
        2206.109375,
        0.0,
        1.0
      ],
      "name": "Sun"
    },
    {
      "children": [
        86
      ],
      "matrix": [
        1.0,
        0.0,
        0.0,
        0.0,
        0.0,
        2.220446049250313e-16,
        1.0,
        0.0,
        0.0,
        -1.0,
        2.220446049250313e-16,
        0.0,
        0.0,
        0.0,
        0.0,
        1.0
      ],
      "name": "Object_85"
    },
    {
      "name": "Object_86"
    }
  ],
  "scene": 0,
  "scenes": [
    {
      "name": "Sketchfab_Scene",
      "nodes": [
        0
      ]
    }
  ]
}
